<?xml version="1.0" encoding="utf-8" standalone="no"?>
<!DOCTYPE svg PUBLIC "-//W3C//DTD SVG 1.1//EN"
  "http://www.w3.org/Graphics/SVG/1.1/DTD/svg11.dtd">
<!-- Created with matplotlib (https://matplotlib.org/) -->
<svg height="281.634375pt" version="1.1" viewBox="0 0 1189.24375 281.634375" width="1189.24375pt" xmlns="http://www.w3.org/2000/svg" xmlns:xlink="http://www.w3.org/1999/xlink">
 <metadata>
  <rdf:RDF xmlns:cc="http://creativecommons.org/ns#" xmlns:dc="http://purl.org/dc/elements/1.1/" xmlns:rdf="http://www.w3.org/1999/02/22-rdf-syntax-ns#">
   <cc:Work>
    <dc:type rdf:resource="http://purl.org/dc/dcmitype/StillImage"/>
    <dc:date>2021-03-17T10:40:24.288478</dc:date>
    <dc:format>image/svg+xml</dc:format>
    <dc:creator>
     <cc:Agent>
      <dc:title>Matplotlib v3.3.4, https://matplotlib.org/</dc:title>
     </cc:Agent>
    </dc:creator>
   </cc:Work>
  </rdf:RDF>
 </metadata>
 <defs>
  <style type="text/css">*{stroke-linecap:butt;stroke-linejoin:round;}</style>
 </defs>
 <g id="figure_1">
  <g id="patch_1">
   <path d="M 0 281.634375 
L 1189.24375 281.634375 
L 1189.24375 0 
L 0 0 
z
" style="fill:#ffffff;"/>
  </g>
  <g id="axes_1">
   <g id="patch_2">
    <path d="M 48.982813 244.078125 
L 1164.982812 244.078125 
L 1164.982812 22.318125 
L 48.982813 22.318125 
z
" style="fill:#e0e0e0;opacity:0.3;"/>
   </g>
   <g id="matplotlib.axis_1">
    <g id="xtick_1">
     <g id="line2d_1">
      <path clip-path="url(#pe675c9fc65)" d="M 48.982813 244.078125 
L 48.982813 22.318125 
" style="fill:none;stroke:#808080;stroke-linecap:square;stroke-width:0.6;"/>
     </g>
     <g id="line2d_2">
      <defs>
       <path d="M 0 0 
L 0 3.5 
" id="mfe7e2f7a0c" style="stroke:#000000;stroke-width:0.8;"/>
      </defs>
      <g>
       <use style="stroke:#000000;stroke-width:0.8;" x="48.982813" xlink:href="#mfe7e2f7a0c" y="244.078125"/>
      </g>
     </g>
     <g id="text_1">
      <!-- 10KHz -->
      <g transform="translate(32.957031 258.676562)scale(0.1 -0.1)">
       <defs>
        <path d="M 12.40625 8.296875 
L 28.515625 8.296875 
L 28.515625 63.921875 
L 10.984375 60.40625 
L 10.984375 69.390625 
L 28.421875 72.90625 
L 38.28125 72.90625 
L 38.28125 8.296875 
L 54.390625 8.296875 
L 54.390625 0 
L 12.40625 0 
z
" id="DejaVuSans-49"/>
        <path d="M 31.78125 66.40625 
Q 24.171875 66.40625 20.328125 58.90625 
Q 16.5 51.421875 16.5 36.375 
Q 16.5 21.390625 20.328125 13.890625 
Q 24.171875 6.390625 31.78125 6.390625 
Q 39.453125 6.390625 43.28125 13.890625 
Q 47.125 21.390625 47.125 36.375 
Q 47.125 51.421875 43.28125 58.90625 
Q 39.453125 66.40625 31.78125 66.40625 
z
M 31.78125 74.21875 
Q 44.046875 74.21875 50.515625 64.515625 
Q 56.984375 54.828125 56.984375 36.375 
Q 56.984375 17.96875 50.515625 8.265625 
Q 44.046875 -1.421875 31.78125 -1.421875 
Q 19.53125 -1.421875 13.0625 8.265625 
Q 6.59375 17.96875 6.59375 36.375 
Q 6.59375 54.828125 13.0625 64.515625 
Q 19.53125 74.21875 31.78125 74.21875 
z
" id="DejaVuSans-48"/>
        <path d="M 9.8125 72.90625 
L 19.671875 72.90625 
L 19.671875 42.09375 
L 52.390625 72.90625 
L 65.09375 72.90625 
L 28.90625 38.921875 
L 67.671875 0 
L 54.6875 0 
L 19.671875 35.109375 
L 19.671875 0 
L 9.8125 0 
z
" id="DejaVuSans-75"/>
        <path d="M 9.8125 72.90625 
L 19.671875 72.90625 
L 19.671875 43.015625 
L 55.515625 43.015625 
L 55.515625 72.90625 
L 65.375 72.90625 
L 65.375 0 
L 55.515625 0 
L 55.515625 34.71875 
L 19.671875 34.71875 
L 19.671875 0 
L 9.8125 0 
z
" id="DejaVuSans-72"/>
        <path d="M 5.515625 54.6875 
L 48.1875 54.6875 
L 48.1875 46.484375 
L 14.40625 7.171875 
L 48.1875 7.171875 
L 48.1875 0 
L 4.296875 0 
L 4.296875 8.203125 
L 38.09375 47.515625 
L 5.515625 47.515625 
z
" id="DejaVuSans-122"/>
       </defs>
       <use xlink:href="#DejaVuSans-49"/>
       <use x="63.623047" xlink:href="#DejaVuSans-48"/>
       <use x="127.246094" xlink:href="#DejaVuSans-75"/>
       <use x="192.822266" xlink:href="#DejaVuSans-72"/>
       <use x="268.017578" xlink:href="#DejaVuSans-122"/>
      </g>
     </g>
    </g>
    <g id="xtick_2">
     <g id="line2d_3">
      <path clip-path="url(#pe675c9fc65)" d="M 369.93797 244.078125 
L 369.93797 22.318125 
" style="fill:none;stroke:#808080;stroke-linecap:square;stroke-width:0.6;"/>
     </g>
     <g id="line2d_4">
      <g>
       <use style="stroke:#000000;stroke-width:0.8;" x="369.93797" xlink:href="#mfe7e2f7a0c" y="244.078125"/>
      </g>
     </g>
     <g id="text_2">
      <!-- 100kHz -->
      <g transform="translate(351.114533 258.676562)scale(0.1 -0.1)">
       <defs>
        <path d="M 9.078125 75.984375 
L 18.109375 75.984375 
L 18.109375 31.109375 
L 44.921875 54.6875 
L 56.390625 54.6875 
L 27.390625 29.109375 
L 57.625 0 
L 45.90625 0 
L 18.109375 26.703125 
L 18.109375 0 
L 9.078125 0 
z
" id="DejaVuSans-107"/>
       </defs>
       <use xlink:href="#DejaVuSans-49"/>
       <use x="63.623047" xlink:href="#DejaVuSans-48"/>
       <use x="127.246094" xlink:href="#DejaVuSans-48"/>
       <use x="190.869141" xlink:href="#DejaVuSans-107"/>
       <use x="248.779297" xlink:href="#DejaVuSans-72"/>
       <use x="323.974609" xlink:href="#DejaVuSans-122"/>
      </g>
     </g>
    </g>
    <g id="xtick_3">
     <g id="line2d_5">
      <path clip-path="url(#pe675c9fc65)" d="M 690.893128 244.078125 
L 690.893128 22.318125 
" style="fill:none;stroke:#808080;stroke-linecap:square;stroke-width:0.6;"/>
     </g>
     <g id="line2d_6">
      <g>
       <use style="stroke:#000000;stroke-width:0.8;" x="690.893128" xlink:href="#mfe7e2f7a0c" y="244.078125"/>
      </g>
     </g>
     <g id="text_3">
      <!-- 1MHz -->
      <g transform="translate(677.01344 258.676562)scale(0.1 -0.1)">
       <defs>
        <path d="M 9.8125 72.90625 
L 24.515625 72.90625 
L 43.109375 23.296875 
L 61.8125 72.90625 
L 76.515625 72.90625 
L 76.515625 0 
L 66.890625 0 
L 66.890625 64.015625 
L 48.09375 14.015625 
L 38.1875 14.015625 
L 19.390625 64.015625 
L 19.390625 0 
L 9.8125 0 
z
" id="DejaVuSans-77"/>
       </defs>
       <use xlink:href="#DejaVuSans-49"/>
       <use x="63.623047" xlink:href="#DejaVuSans-77"/>
       <use x="149.902344" xlink:href="#DejaVuSans-72"/>
       <use x="225.097656" xlink:href="#DejaVuSans-122"/>
      </g>
     </g>
    </g>
    <g id="xtick_4">
     <g id="line2d_7">
      <path clip-path="url(#pe675c9fc65)" d="M 1011.848285 244.078125 
L 1011.848285 22.318125 
" style="fill:none;stroke:#808080;stroke-linecap:square;stroke-width:0.6;"/>
     </g>
     <g id="line2d_8">
      <g>
       <use style="stroke:#000000;stroke-width:0.8;" x="1011.848285" xlink:href="#mfe7e2f7a0c" y="244.078125"/>
      </g>
     </g>
     <g id="text_4">
      <!-- 10MHz -->
      <g transform="translate(994.787348 258.676562)scale(0.1 -0.1)">
       <use xlink:href="#DejaVuSans-49"/>
       <use x="63.623047" xlink:href="#DejaVuSans-48"/>
       <use x="127.246094" xlink:href="#DejaVuSans-77"/>
       <use x="213.525391" xlink:href="#DejaVuSans-72"/>
       <use x="288.720703" xlink:href="#DejaVuSans-122"/>
      </g>
     </g>
    </g>
    <g id="xtick_5">
     <g id="line2d_9">
      <path clip-path="url(#pe675c9fc65)" d="M 1164.982812 244.078125 
L 1164.982812 22.318125 
" style="fill:none;stroke:#808080;stroke-linecap:square;stroke-width:0.6;"/>
     </g>
     <g id="line2d_10">
      <g>
       <use style="stroke:#000000;stroke-width:0.8;" x="1164.982812" xlink:href="#mfe7e2f7a0c" y="244.078125"/>
      </g>
     </g>
     <g id="text_5">
      <!-- 30MHz -->
      <g transform="translate(1147.921875 258.676562)scale(0.1 -0.1)">
       <defs>
        <path d="M 40.578125 39.3125 
Q 47.65625 37.796875 51.625 33 
Q 55.609375 28.21875 55.609375 21.1875 
Q 55.609375 10.40625 48.1875 4.484375 
Q 40.765625 -1.421875 27.09375 -1.421875 
Q 22.515625 -1.421875 17.65625 -0.515625 
Q 12.796875 0.390625 7.625 2.203125 
L 7.625 11.71875 
Q 11.71875 9.328125 16.59375 8.109375 
Q 21.484375 6.890625 26.8125 6.890625 
Q 36.078125 6.890625 40.9375 10.546875 
Q 45.796875 14.203125 45.796875 21.1875 
Q 45.796875 27.640625 41.28125 31.265625 
Q 36.765625 34.90625 28.71875 34.90625 
L 20.21875 34.90625 
L 20.21875 43.015625 
L 29.109375 43.015625 
Q 36.375 43.015625 40.234375 45.921875 
Q 44.09375 48.828125 44.09375 54.296875 
Q 44.09375 59.90625 40.109375 62.90625 
Q 36.140625 65.921875 28.71875 65.921875 
Q 24.65625 65.921875 20.015625 65.03125 
Q 15.375 64.15625 9.8125 62.3125 
L 9.8125 71.09375 
Q 15.4375 72.65625 20.34375 73.4375 
Q 25.25 74.21875 29.59375 74.21875 
Q 40.828125 74.21875 47.359375 69.109375 
Q 53.90625 64.015625 53.90625 55.328125 
Q 53.90625 49.265625 50.4375 45.09375 
Q 46.96875 40.921875 40.578125 39.3125 
z
" id="DejaVuSans-51"/>
       </defs>
       <use xlink:href="#DejaVuSans-51"/>
       <use x="63.623047" xlink:href="#DejaVuSans-48"/>
       <use x="127.246094" xlink:href="#DejaVuSans-77"/>
       <use x="213.525391" xlink:href="#DejaVuSans-72"/>
       <use x="288.720703" xlink:href="#DejaVuSans-122"/>
      </g>
     </g>
    </g>
    <g id="xtick_6">
     <g id="line2d_11">
      <path clip-path="url(#pe675c9fc65)" d="M 145.599942 244.078125 
L 145.599942 22.318125 
" style="fill:none;stroke:#808080;stroke-dasharray:0.3,0.495;stroke-dashoffset:0;stroke-width:0.3;"/>
     </g>
     <g id="line2d_12">
      <defs>
       <path d="M 0 0 
L 0 2 
" id="mecc5dda4f8" style="stroke:#000000;stroke-width:0.6;"/>
      </defs>
      <g>
       <use style="stroke:#000000;stroke-width:0.6;" x="145.599942" xlink:href="#mecc5dda4f8" y="244.078125"/>
      </g>
     </g>
    </g>
    <g id="xtick_7">
     <g id="line2d_13">
      <path clip-path="url(#pe675c9fc65)" d="M 202.11734 244.078125 
L 202.11734 22.318125 
" style="fill:none;stroke:#808080;stroke-dasharray:0.3,0.495;stroke-dashoffset:0;stroke-width:0.3;"/>
     </g>
     <g id="line2d_14">
      <g>
       <use style="stroke:#000000;stroke-width:0.6;" x="202.11734" xlink:href="#mecc5dda4f8" y="244.078125"/>
      </g>
     </g>
    </g>
    <g id="xtick_8">
     <g id="line2d_15">
      <path clip-path="url(#pe675c9fc65)" d="M 242.217072 244.078125 
L 242.217072 22.318125 
" style="fill:none;stroke:#808080;stroke-dasharray:0.3,0.495;stroke-dashoffset:0;stroke-width:0.3;"/>
     </g>
     <g id="line2d_16">
      <g>
       <use style="stroke:#000000;stroke-width:0.6;" x="242.217072" xlink:href="#mecc5dda4f8" y="244.078125"/>
      </g>
     </g>
    </g>
    <g id="xtick_9">
     <g id="line2d_17">
      <path clip-path="url(#pe675c9fc65)" d="M 273.32084 244.078125 
L 273.32084 22.318125 
" style="fill:none;stroke:#808080;stroke-dasharray:0.3,0.495;stroke-dashoffset:0;stroke-width:0.3;"/>
     </g>
     <g id="line2d_18">
      <g>
       <use style="stroke:#000000;stroke-width:0.6;" x="273.32084" xlink:href="#mecc5dda4f8" y="244.078125"/>
      </g>
     </g>
    </g>
    <g id="xtick_10">
     <g id="line2d_19">
      <path clip-path="url(#pe675c9fc65)" d="M 298.73447 244.078125 
L 298.73447 22.318125 
" style="fill:none;stroke:#808080;stroke-dasharray:0.3,0.495;stroke-dashoffset:0;stroke-width:0.3;"/>
     </g>
     <g id="line2d_20">
      <g>
       <use style="stroke:#000000;stroke-width:0.6;" x="298.73447" xlink:href="#mecc5dda4f8" y="244.078125"/>
      </g>
     </g>
    </g>
    <g id="xtick_11">
     <g id="line2d_21">
      <path clip-path="url(#pe675c9fc65)" d="M 320.221387 244.078125 
L 320.221387 22.318125 
" style="fill:none;stroke:#808080;stroke-dasharray:0.3,0.495;stroke-dashoffset:0;stroke-width:0.3;"/>
     </g>
     <g id="line2d_22">
      <g>
       <use style="stroke:#000000;stroke-width:0.6;" x="320.221387" xlink:href="#mecc5dda4f8" y="244.078125"/>
      </g>
     </g>
    </g>
    <g id="xtick_12">
     <g id="line2d_23">
      <path clip-path="url(#pe675c9fc65)" d="M 338.834202 244.078125 
L 338.834202 22.318125 
" style="fill:none;stroke:#808080;stroke-dasharray:0.3,0.495;stroke-dashoffset:0;stroke-width:0.3;"/>
     </g>
     <g id="line2d_24">
      <g>
       <use style="stroke:#000000;stroke-width:0.6;" x="338.834202" xlink:href="#mecc5dda4f8" y="244.078125"/>
      </g>
     </g>
    </g>
    <g id="xtick_13">
     <g id="line2d_25">
      <path clip-path="url(#pe675c9fc65)" d="M 355.251867 244.078125 
L 355.251867 22.318125 
" style="fill:none;stroke:#808080;stroke-dasharray:0.3,0.495;stroke-dashoffset:0;stroke-width:0.3;"/>
     </g>
     <g id="line2d_26">
      <g>
       <use style="stroke:#000000;stroke-width:0.6;" x="355.251867" xlink:href="#mecc5dda4f8" y="244.078125"/>
      </g>
     </g>
    </g>
    <g id="xtick_14">
     <g id="line2d_27">
      <path clip-path="url(#pe675c9fc65)" d="M 466.5551 244.078125 
L 466.5551 22.318125 
" style="fill:none;stroke:#808080;stroke-dasharray:0.3,0.495;stroke-dashoffset:0;stroke-width:0.3;"/>
     </g>
     <g id="line2d_28">
      <g>
       <use style="stroke:#000000;stroke-width:0.6;" x="466.5551" xlink:href="#mecc5dda4f8" y="244.078125"/>
      </g>
     </g>
    </g>
    <g id="xtick_15">
     <g id="line2d_29">
      <path clip-path="url(#pe675c9fc65)" d="M 523.072497 244.078125 
L 523.072497 22.318125 
" style="fill:none;stroke:#808080;stroke-dasharray:0.3,0.495;stroke-dashoffset:0;stroke-width:0.3;"/>
     </g>
     <g id="line2d_30">
      <g>
       <use style="stroke:#000000;stroke-width:0.6;" x="523.072497" xlink:href="#mecc5dda4f8" y="244.078125"/>
      </g>
     </g>
    </g>
    <g id="xtick_16">
     <g id="line2d_31">
      <path clip-path="url(#pe675c9fc65)" d="M 563.172229 244.078125 
L 563.172229 22.318125 
" style="fill:none;stroke:#808080;stroke-dasharray:0.3,0.495;stroke-dashoffset:0;stroke-width:0.3;"/>
     </g>
     <g id="line2d_32">
      <g>
       <use style="stroke:#000000;stroke-width:0.6;" x="563.172229" xlink:href="#mecc5dda4f8" y="244.078125"/>
      </g>
     </g>
    </g>
    <g id="xtick_17">
     <g id="line2d_33">
      <path clip-path="url(#pe675c9fc65)" d="M 594.275998 244.078125 
L 594.275998 22.318125 
" style="fill:none;stroke:#808080;stroke-dasharray:0.3,0.495;stroke-dashoffset:0;stroke-width:0.3;"/>
     </g>
     <g id="line2d_34">
      <g>
       <use style="stroke:#000000;stroke-width:0.6;" x="594.275998" xlink:href="#mecc5dda4f8" y="244.078125"/>
      </g>
     </g>
    </g>
    <g id="xtick_18">
     <g id="line2d_35">
      <path clip-path="url(#pe675c9fc65)" d="M 619.689627 244.078125 
L 619.689627 22.318125 
" style="fill:none;stroke:#808080;stroke-dasharray:0.3,0.495;stroke-dashoffset:0;stroke-width:0.3;"/>
     </g>
     <g id="line2d_36">
      <g>
       <use style="stroke:#000000;stroke-width:0.6;" x="619.689627" xlink:href="#mecc5dda4f8" y="244.078125"/>
      </g>
     </g>
    </g>
    <g id="xtick_19">
     <g id="line2d_37">
      <path clip-path="url(#pe675c9fc65)" d="M 641.176545 244.078125 
L 641.176545 22.318125 
" style="fill:none;stroke:#808080;stroke-dasharray:0.3,0.495;stroke-dashoffset:0;stroke-width:0.3;"/>
     </g>
     <g id="line2d_38">
      <g>
       <use style="stroke:#000000;stroke-width:0.6;" x="641.176545" xlink:href="#mecc5dda4f8" y="244.078125"/>
      </g>
     </g>
    </g>
    <g id="xtick_20">
     <g id="line2d_39">
      <path clip-path="url(#pe675c9fc65)" d="M 659.789359 244.078125 
L 659.789359 22.318125 
" style="fill:none;stroke:#808080;stroke-dasharray:0.3,0.495;stroke-dashoffset:0;stroke-width:0.3;"/>
     </g>
     <g id="line2d_40">
      <g>
       <use style="stroke:#000000;stroke-width:0.6;" x="659.789359" xlink:href="#mecc5dda4f8" y="244.078125"/>
      </g>
     </g>
    </g>
    <g id="xtick_21">
     <g id="line2d_41">
      <path clip-path="url(#pe675c9fc65)" d="M 676.207025 244.078125 
L 676.207025 22.318125 
" style="fill:none;stroke:#808080;stroke-dasharray:0.3,0.495;stroke-dashoffset:0;stroke-width:0.3;"/>
     </g>
     <g id="line2d_42">
      <g>
       <use style="stroke:#000000;stroke-width:0.6;" x="676.207025" xlink:href="#mecc5dda4f8" y="244.078125"/>
      </g>
     </g>
    </g>
    <g id="xtick_22">
     <g id="line2d_43">
      <path clip-path="url(#pe675c9fc65)" d="M 787.510257 244.078125 
L 787.510257 22.318125 
" style="fill:none;stroke:#808080;stroke-dasharray:0.3,0.495;stroke-dashoffset:0;stroke-width:0.3;"/>
     </g>
     <g id="line2d_44">
      <g>
       <use style="stroke:#000000;stroke-width:0.6;" x="787.510257" xlink:href="#mecc5dda4f8" y="244.078125"/>
      </g>
     </g>
    </g>
    <g id="xtick_23">
     <g id="line2d_45">
      <path clip-path="url(#pe675c9fc65)" d="M 844.027655 244.078125 
L 844.027655 22.318125 
" style="fill:none;stroke:#808080;stroke-dasharray:0.3,0.495;stroke-dashoffset:0;stroke-width:0.3;"/>
     </g>
     <g id="line2d_46">
      <g>
       <use style="stroke:#000000;stroke-width:0.6;" x="844.027655" xlink:href="#mecc5dda4f8" y="244.078125"/>
      </g>
     </g>
    </g>
    <g id="xtick_24">
     <g id="line2d_47">
      <path clip-path="url(#pe675c9fc65)" d="M 884.127387 244.078125 
L 884.127387 22.318125 
" style="fill:none;stroke:#808080;stroke-dasharray:0.3,0.495;stroke-dashoffset:0;stroke-width:0.3;"/>
     </g>
     <g id="line2d_48">
      <g>
       <use style="stroke:#000000;stroke-width:0.6;" x="884.127387" xlink:href="#mecc5dda4f8" y="244.078125"/>
      </g>
     </g>
    </g>
    <g id="xtick_25">
     <g id="line2d_49">
      <path clip-path="url(#pe675c9fc65)" d="M 915.231155 244.078125 
L 915.231155 22.318125 
" style="fill:none;stroke:#808080;stroke-dasharray:0.3,0.495;stroke-dashoffset:0;stroke-width:0.3;"/>
     </g>
     <g id="line2d_50">
      <g>
       <use style="stroke:#000000;stroke-width:0.6;" x="915.231155" xlink:href="#mecc5dda4f8" y="244.078125"/>
      </g>
     </g>
    </g>
    <g id="xtick_26">
     <g id="line2d_51">
      <path clip-path="url(#pe675c9fc65)" d="M 940.644785 244.078125 
L 940.644785 22.318125 
" style="fill:none;stroke:#808080;stroke-dasharray:0.3,0.495;stroke-dashoffset:0;stroke-width:0.3;"/>
     </g>
     <g id="line2d_52">
      <g>
       <use style="stroke:#000000;stroke-width:0.6;" x="940.644785" xlink:href="#mecc5dda4f8" y="244.078125"/>
      </g>
     </g>
    </g>
    <g id="xtick_27">
     <g id="line2d_53">
      <path clip-path="url(#pe675c9fc65)" d="M 962.131702 244.078125 
L 962.131702 22.318125 
" style="fill:none;stroke:#808080;stroke-dasharray:0.3,0.495;stroke-dashoffset:0;stroke-width:0.3;"/>
     </g>
     <g id="line2d_54">
      <g>
       <use style="stroke:#000000;stroke-width:0.6;" x="962.131702" xlink:href="#mecc5dda4f8" y="244.078125"/>
      </g>
     </g>
    </g>
    <g id="xtick_28">
     <g id="line2d_55">
      <path clip-path="url(#pe675c9fc65)" d="M 980.744517 244.078125 
L 980.744517 22.318125 
" style="fill:none;stroke:#808080;stroke-dasharray:0.3,0.495;stroke-dashoffset:0;stroke-width:0.3;"/>
     </g>
     <g id="line2d_56">
      <g>
       <use style="stroke:#000000;stroke-width:0.6;" x="980.744517" xlink:href="#mecc5dda4f8" y="244.078125"/>
      </g>
     </g>
    </g>
    <g id="xtick_29">
     <g id="line2d_57">
      <path clip-path="url(#pe675c9fc65)" d="M 997.162182 244.078125 
L 997.162182 22.318125 
" style="fill:none;stroke:#808080;stroke-dasharray:0.3,0.495;stroke-dashoffset:0;stroke-width:0.3;"/>
     </g>
     <g id="line2d_58">
      <g>
       <use style="stroke:#000000;stroke-width:0.6;" x="997.162182" xlink:href="#mecc5dda4f8" y="244.078125"/>
      </g>
     </g>
    </g>
    <g id="xtick_30">
     <g id="line2d_59">
      <path clip-path="url(#pe675c9fc65)" d="M 1108.465415 244.078125 
L 1108.465415 22.318125 
" style="fill:none;stroke:#808080;stroke-dasharray:0.3,0.495;stroke-dashoffset:0;stroke-width:0.3;"/>
     </g>
     <g id="line2d_60">
      <g>
       <use style="stroke:#000000;stroke-width:0.6;" x="1108.465415" xlink:href="#mecc5dda4f8" y="244.078125"/>
      </g>
     </g>
    </g>
    <g id="text_6">
     <!-- Frequency -->
     <g transform="translate(581.153125 272.354687)scale(0.1 -0.1)">
      <defs>
       <path d="M 9.8125 72.90625 
L 51.703125 72.90625 
L 51.703125 64.59375 
L 19.671875 64.59375 
L 19.671875 43.109375 
L 48.578125 43.109375 
L 48.578125 34.8125 
L 19.671875 34.8125 
L 19.671875 0 
L 9.8125 0 
z
" id="DejaVuSans-70"/>
       <path d="M 41.109375 46.296875 
Q 39.59375 47.171875 37.8125 47.578125 
Q 36.03125 48 33.890625 48 
Q 26.265625 48 22.1875 43.046875 
Q 18.109375 38.09375 18.109375 28.8125 
L 18.109375 0 
L 9.078125 0 
L 9.078125 54.6875 
L 18.109375 54.6875 
L 18.109375 46.1875 
Q 20.953125 51.171875 25.484375 53.578125 
Q 30.03125 56 36.53125 56 
Q 37.453125 56 38.578125 55.875 
Q 39.703125 55.765625 41.0625 55.515625 
z
" id="DejaVuSans-114"/>
       <path d="M 56.203125 29.59375 
L 56.203125 25.203125 
L 14.890625 25.203125 
Q 15.484375 15.921875 20.484375 11.0625 
Q 25.484375 6.203125 34.421875 6.203125 
Q 39.59375 6.203125 44.453125 7.46875 
Q 49.3125 8.734375 54.109375 11.28125 
L 54.109375 2.78125 
Q 49.265625 0.734375 44.1875 -0.34375 
Q 39.109375 -1.421875 33.890625 -1.421875 
Q 20.796875 -1.421875 13.15625 6.1875 
Q 5.515625 13.8125 5.515625 26.8125 
Q 5.515625 40.234375 12.765625 48.109375 
Q 20.015625 56 32.328125 56 
Q 43.359375 56 49.78125 48.890625 
Q 56.203125 41.796875 56.203125 29.59375 
z
M 47.21875 32.234375 
Q 47.125 39.59375 43.09375 43.984375 
Q 39.0625 48.390625 32.421875 48.390625 
Q 24.90625 48.390625 20.390625 44.140625 
Q 15.875 39.890625 15.1875 32.171875 
z
" id="DejaVuSans-101"/>
       <path d="M 14.796875 27.296875 
Q 14.796875 17.390625 18.875 11.75 
Q 22.953125 6.109375 30.078125 6.109375 
Q 37.203125 6.109375 41.296875 11.75 
Q 45.40625 17.390625 45.40625 27.296875 
Q 45.40625 37.203125 41.296875 42.84375 
Q 37.203125 48.484375 30.078125 48.484375 
Q 22.953125 48.484375 18.875 42.84375 
Q 14.796875 37.203125 14.796875 27.296875 
z
M 45.40625 8.203125 
Q 42.578125 3.328125 38.25 0.953125 
Q 33.9375 -1.421875 27.875 -1.421875 
Q 17.96875 -1.421875 11.734375 6.484375 
Q 5.515625 14.40625 5.515625 27.296875 
Q 5.515625 40.1875 11.734375 48.09375 
Q 17.96875 56 27.875 56 
Q 33.9375 56 38.25 53.625 
Q 42.578125 51.265625 45.40625 46.390625 
L 45.40625 54.6875 
L 54.390625 54.6875 
L 54.390625 -20.796875 
L 45.40625 -20.796875 
z
" id="DejaVuSans-113"/>
       <path d="M 8.5 21.578125 
L 8.5 54.6875 
L 17.484375 54.6875 
L 17.484375 21.921875 
Q 17.484375 14.15625 20.5 10.265625 
Q 23.53125 6.390625 29.59375 6.390625 
Q 36.859375 6.390625 41.078125 11.03125 
Q 45.3125 15.671875 45.3125 23.6875 
L 45.3125 54.6875 
L 54.296875 54.6875 
L 54.296875 0 
L 45.3125 0 
L 45.3125 8.40625 
Q 42.046875 3.421875 37.71875 1 
Q 33.40625 -1.421875 27.6875 -1.421875 
Q 18.265625 -1.421875 13.375 4.4375 
Q 8.5 10.296875 8.5 21.578125 
z
M 31.109375 56 
z
" id="DejaVuSans-117"/>
       <path d="M 54.890625 33.015625 
L 54.890625 0 
L 45.90625 0 
L 45.90625 32.71875 
Q 45.90625 40.484375 42.875 44.328125 
Q 39.84375 48.1875 33.796875 48.1875 
Q 26.515625 48.1875 22.3125 43.546875 
Q 18.109375 38.921875 18.109375 30.90625 
L 18.109375 0 
L 9.078125 0 
L 9.078125 54.6875 
L 18.109375 54.6875 
L 18.109375 46.1875 
Q 21.34375 51.125 25.703125 53.5625 
Q 30.078125 56 35.796875 56 
Q 45.21875 56 50.046875 50.171875 
Q 54.890625 44.34375 54.890625 33.015625 
z
" id="DejaVuSans-110"/>
       <path d="M 48.78125 52.59375 
L 48.78125 44.1875 
Q 44.96875 46.296875 41.140625 47.34375 
Q 37.3125 48.390625 33.40625 48.390625 
Q 24.65625 48.390625 19.8125 42.84375 
Q 14.984375 37.3125 14.984375 27.296875 
Q 14.984375 17.28125 19.8125 11.734375 
Q 24.65625 6.203125 33.40625 6.203125 
Q 37.3125 6.203125 41.140625 7.25 
Q 44.96875 8.296875 48.78125 10.40625 
L 48.78125 2.09375 
Q 45.015625 0.34375 40.984375 -0.53125 
Q 36.96875 -1.421875 32.421875 -1.421875 
Q 20.0625 -1.421875 12.78125 6.34375 
Q 5.515625 14.109375 5.515625 27.296875 
Q 5.515625 40.671875 12.859375 48.328125 
Q 20.21875 56 33.015625 56 
Q 37.15625 56 41.109375 55.140625 
Q 45.0625 54.296875 48.78125 52.59375 
z
" id="DejaVuSans-99"/>
       <path d="M 32.171875 -5.078125 
Q 28.375 -14.84375 24.75 -17.8125 
Q 21.140625 -20.796875 15.09375 -20.796875 
L 7.90625 -20.796875 
L 7.90625 -13.28125 
L 13.1875 -13.28125 
Q 16.890625 -13.28125 18.9375 -11.515625 
Q 21 -9.765625 23.484375 -3.21875 
L 25.09375 0.875 
L 2.984375 54.6875 
L 12.5 54.6875 
L 29.59375 11.921875 
L 46.6875 54.6875 
L 56.203125 54.6875 
z
" id="DejaVuSans-121"/>
      </defs>
      <use xlink:href="#DejaVuSans-70"/>
      <use x="50.269531" xlink:href="#DejaVuSans-114"/>
      <use x="89.132812" xlink:href="#DejaVuSans-101"/>
      <use x="150.65625" xlink:href="#DejaVuSans-113"/>
      <use x="214.132812" xlink:href="#DejaVuSans-117"/>
      <use x="277.511719" xlink:href="#DejaVuSans-101"/>
      <use x="339.035156" xlink:href="#DejaVuSans-110"/>
      <use x="402.414062" xlink:href="#DejaVuSans-99"/>
      <use x="457.394531" xlink:href="#DejaVuSans-121"/>
     </g>
    </g>
   </g>
   <g id="matplotlib.axis_2">
    <g id="ytick_1">
     <g id="line2d_61">
      <path clip-path="url(#pe675c9fc65)" d="M 48.982813 244.078125 
L 1164.982812 244.078125 
" style="fill:none;stroke:#808080;stroke-linecap:square;stroke-width:0.4;"/>
     </g>
     <g id="line2d_62">
      <defs>
       <path d="M 0 0 
L -3.5 0 
" id="m7fdc2ed3f1" style="stroke:#000000;stroke-width:0.8;"/>
      </defs>
      <g>
       <use style="stroke:#000000;stroke-width:0.8;" x="48.982813" xlink:href="#m7fdc2ed3f1" y="244.078125"/>
      </g>
     </g>
     <g id="text_7">
      <!-- −20 -->
      <g transform="translate(20.878125 247.877344)scale(0.1 -0.1)">
       <defs>
        <path d="M 10.59375 35.5 
L 73.1875 35.5 
L 73.1875 27.203125 
L 10.59375 27.203125 
z
" id="DejaVuSans-8722"/>
        <path d="M 19.1875 8.296875 
L 53.609375 8.296875 
L 53.609375 0 
L 7.328125 0 
L 7.328125 8.296875 
Q 12.9375 14.109375 22.625 23.890625 
Q 32.328125 33.6875 34.8125 36.53125 
Q 39.546875 41.84375 41.421875 45.53125 
Q 43.3125 49.21875 43.3125 52.78125 
Q 43.3125 58.59375 39.234375 62.25 
Q 35.15625 65.921875 28.609375 65.921875 
Q 23.96875 65.921875 18.8125 64.3125 
Q 13.671875 62.703125 7.8125 59.421875 
L 7.8125 69.390625 
Q 13.765625 71.78125 18.9375 73 
Q 24.125 74.21875 28.421875 74.21875 
Q 39.75 74.21875 46.484375 68.546875 
Q 53.21875 62.890625 53.21875 53.421875 
Q 53.21875 48.921875 51.53125 44.890625 
Q 49.859375 40.875 45.40625 35.40625 
Q 44.1875 33.984375 37.640625 27.21875 
Q 31.109375 20.453125 19.1875 8.296875 
z
" id="DejaVuSans-50"/>
       </defs>
       <use xlink:href="#DejaVuSans-8722"/>
       <use x="83.789062" xlink:href="#DejaVuSans-50"/>
       <use x="147.412109" xlink:href="#DejaVuSans-48"/>
      </g>
     </g>
    </g>
    <g id="ytick_2">
     <g id="line2d_63">
      <path clip-path="url(#pe675c9fc65)" d="M 48.982813 207.118125 
L 1164.982812 207.118125 
" style="fill:none;stroke:#808080;stroke-linecap:square;stroke-width:0.4;"/>
     </g>
     <g id="line2d_64">
      <g>
       <use style="stroke:#000000;stroke-width:0.8;" x="48.982813" xlink:href="#m7fdc2ed3f1" y="207.118125"/>
      </g>
     </g>
     <g id="text_8">
      <!-- −10 -->
      <g transform="translate(20.878125 210.917344)scale(0.1 -0.1)">
       <use xlink:href="#DejaVuSans-8722"/>
       <use x="83.789062" xlink:href="#DejaVuSans-49"/>
       <use x="147.412109" xlink:href="#DejaVuSans-48"/>
      </g>
     </g>
    </g>
    <g id="ytick_3">
     <g id="line2d_65">
      <path clip-path="url(#pe675c9fc65)" d="M 48.982813 170.158125 
L 1164.982812 170.158125 
" style="fill:none;stroke:#808080;stroke-linecap:square;stroke-width:0.4;"/>
     </g>
     <g id="line2d_66">
      <g>
       <use style="stroke:#000000;stroke-width:0.8;" x="48.982813" xlink:href="#m7fdc2ed3f1" y="170.158125"/>
      </g>
     </g>
     <g id="text_9">
      <!-- 0 -->
      <g transform="translate(35.620313 173.957344)scale(0.1 -0.1)">
       <use xlink:href="#DejaVuSans-48"/>
      </g>
     </g>
    </g>
    <g id="ytick_4">
     <g id="line2d_67">
      <path clip-path="url(#pe675c9fc65)" d="M 48.982813 133.198125 
L 1164.982812 133.198125 
" style="fill:none;stroke:#808080;stroke-linecap:square;stroke-width:0.4;"/>
     </g>
     <g id="line2d_68">
      <g>
       <use style="stroke:#000000;stroke-width:0.8;" x="48.982813" xlink:href="#m7fdc2ed3f1" y="133.198125"/>
      </g>
     </g>
     <g id="text_10">
      <!-- 10 -->
      <g transform="translate(29.257813 136.997344)scale(0.1 -0.1)">
       <use xlink:href="#DejaVuSans-49"/>
       <use x="63.623047" xlink:href="#DejaVuSans-48"/>
      </g>
     </g>
    </g>
    <g id="ytick_5">
     <g id="line2d_69">
      <path clip-path="url(#pe675c9fc65)" d="M 48.982813 96.238125 
L 1164.982812 96.238125 
" style="fill:none;stroke:#808080;stroke-linecap:square;stroke-width:0.4;"/>
     </g>
     <g id="line2d_70">
      <g>
       <use style="stroke:#000000;stroke-width:0.8;" x="48.982813" xlink:href="#m7fdc2ed3f1" y="96.238125"/>
      </g>
     </g>
     <g id="text_11">
      <!-- 20 -->
      <g transform="translate(29.257813 100.037344)scale(0.1 -0.1)">
       <use xlink:href="#DejaVuSans-50"/>
       <use x="63.623047" xlink:href="#DejaVuSans-48"/>
      </g>
     </g>
    </g>
    <g id="ytick_6">
     <g id="line2d_71">
      <path clip-path="url(#pe675c9fc65)" d="M 48.982813 59.278125 
L 1164.982812 59.278125 
" style="fill:none;stroke:#808080;stroke-linecap:square;stroke-width:0.4;"/>
     </g>
     <g id="line2d_72">
      <g>
       <use style="stroke:#000000;stroke-width:0.8;" x="48.982813" xlink:href="#m7fdc2ed3f1" y="59.278125"/>
      </g>
     </g>
     <g id="text_12">
      <!-- 30 -->
      <g transform="translate(29.257813 63.077344)scale(0.1 -0.1)">
       <use xlink:href="#DejaVuSans-51"/>
       <use x="63.623047" xlink:href="#DejaVuSans-48"/>
      </g>
     </g>
    </g>
    <g id="ytick_7">
     <g id="line2d_73">
      <path clip-path="url(#pe675c9fc65)" d="M 48.982813 22.318125 
L 1164.982812 22.318125 
" style="fill:none;stroke:#808080;stroke-linecap:square;stroke-width:0.4;"/>
     </g>
     <g id="line2d_74">
      <g>
       <use style="stroke:#000000;stroke-width:0.8;" x="48.982813" xlink:href="#m7fdc2ed3f1" y="22.318125"/>
      </g>
     </g>
     <g id="text_13">
      <!-- 40 -->
      <g transform="translate(29.257813 26.117344)scale(0.1 -0.1)">
       <defs>
        <path d="M 37.796875 64.3125 
L 12.890625 25.390625 
L 37.796875 25.390625 
z
M 35.203125 72.90625 
L 47.609375 72.90625 
L 47.609375 25.390625 
L 58.015625 25.390625 
L 58.015625 17.1875 
L 47.609375 17.1875 
L 47.609375 0 
L 37.796875 0 
L 37.796875 17.1875 
L 4.890625 17.1875 
L 4.890625 26.703125 
z
" id="DejaVuSans-52"/>
       </defs>
       <use xlink:href="#DejaVuSans-52"/>
       <use x="63.623047" xlink:href="#DejaVuSans-48"/>
      </g>
     </g>
    </g>
    <g id="ytick_8">
     <g id="line2d_75">
      <defs>
       <path d="M 0 0 
L -2 0 
" id="mba35497288" style="stroke:#000000;stroke-width:0.6;"/>
      </defs>
      <g>
       <use style="stroke:#000000;stroke-width:0.6;" x="48.982813" xlink:href="#mba35497288" y="236.686125"/>
      </g>
     </g>
    </g>
    <g id="ytick_9">
     <g id="line2d_76">
      <g>
       <use style="stroke:#000000;stroke-width:0.6;" x="48.982813" xlink:href="#mba35497288" y="229.294125"/>
      </g>
     </g>
    </g>
    <g id="ytick_10">
     <g id="line2d_77">
      <g>
       <use style="stroke:#000000;stroke-width:0.6;" x="48.982813" xlink:href="#mba35497288" y="221.902125"/>
      </g>
     </g>
    </g>
    <g id="ytick_11">
     <g id="line2d_78">
      <g>
       <use style="stroke:#000000;stroke-width:0.6;" x="48.982813" xlink:href="#mba35497288" y="214.510125"/>
      </g>
     </g>
    </g>
    <g id="ytick_12">
     <g id="line2d_79">
      <g>
       <use style="stroke:#000000;stroke-width:0.6;" x="48.982813" xlink:href="#mba35497288" y="199.726125"/>
      </g>
     </g>
    </g>
    <g id="ytick_13">
     <g id="line2d_80">
      <g>
       <use style="stroke:#000000;stroke-width:0.6;" x="48.982813" xlink:href="#mba35497288" y="192.334125"/>
      </g>
     </g>
    </g>
    <g id="ytick_14">
     <g id="line2d_81">
      <g>
       <use style="stroke:#000000;stroke-width:0.6;" x="48.982813" xlink:href="#mba35497288" y="184.942125"/>
      </g>
     </g>
    </g>
    <g id="ytick_15">
     <g id="line2d_82">
      <g>
       <use style="stroke:#000000;stroke-width:0.6;" x="48.982813" xlink:href="#mba35497288" y="177.550125"/>
      </g>
     </g>
    </g>
    <g id="ytick_16">
     <g id="line2d_83">
      <g>
       <use style="stroke:#000000;stroke-width:0.6;" x="48.982813" xlink:href="#mba35497288" y="162.766125"/>
      </g>
     </g>
    </g>
    <g id="ytick_17">
     <g id="line2d_84">
      <g>
       <use style="stroke:#000000;stroke-width:0.6;" x="48.982813" xlink:href="#mba35497288" y="155.374125"/>
      </g>
     </g>
    </g>
    <g id="ytick_18">
     <g id="line2d_85">
      <g>
       <use style="stroke:#000000;stroke-width:0.6;" x="48.982813" xlink:href="#mba35497288" y="147.982125"/>
      </g>
     </g>
    </g>
    <g id="ytick_19">
     <g id="line2d_86">
      <g>
       <use style="stroke:#000000;stroke-width:0.6;" x="48.982813" xlink:href="#mba35497288" y="140.590125"/>
      </g>
     </g>
    </g>
    <g id="ytick_20">
     <g id="line2d_87">
      <g>
       <use style="stroke:#000000;stroke-width:0.6;" x="48.982813" xlink:href="#mba35497288" y="125.806125"/>
      </g>
     </g>
    </g>
    <g id="ytick_21">
     <g id="line2d_88">
      <g>
       <use style="stroke:#000000;stroke-width:0.6;" x="48.982813" xlink:href="#mba35497288" y="118.414125"/>
      </g>
     </g>
    </g>
    <g id="ytick_22">
     <g id="line2d_89">
      <g>
       <use style="stroke:#000000;stroke-width:0.6;" x="48.982813" xlink:href="#mba35497288" y="111.022125"/>
      </g>
     </g>
    </g>
    <g id="ytick_23">
     <g id="line2d_90">
      <g>
       <use style="stroke:#000000;stroke-width:0.6;" x="48.982813" xlink:href="#mba35497288" y="103.630125"/>
      </g>
     </g>
    </g>
    <g id="ytick_24">
     <g id="line2d_91">
      <g>
       <use style="stroke:#000000;stroke-width:0.6;" x="48.982813" xlink:href="#mba35497288" y="88.846125"/>
      </g>
     </g>
    </g>
    <g id="ytick_25">
     <g id="line2d_92">
      <g>
       <use style="stroke:#000000;stroke-width:0.6;" x="48.982813" xlink:href="#mba35497288" y="81.454125"/>
      </g>
     </g>
    </g>
    <g id="ytick_26">
     <g id="line2d_93">
      <g>
       <use style="stroke:#000000;stroke-width:0.6;" x="48.982813" xlink:href="#mba35497288" y="74.062125"/>
      </g>
     </g>
    </g>
    <g id="ytick_27">
     <g id="line2d_94">
      <g>
       <use style="stroke:#000000;stroke-width:0.6;" x="48.982813" xlink:href="#mba35497288" y="66.670125"/>
      </g>
     </g>
    </g>
    <g id="ytick_28">
     <g id="line2d_95">
      <g>
       <use style="stroke:#000000;stroke-width:0.6;" x="48.982813" xlink:href="#mba35497288" y="51.886125"/>
      </g>
     </g>
    </g>
    <g id="ytick_29">
     <g id="line2d_96">
      <g>
       <use style="stroke:#000000;stroke-width:0.6;" x="48.982813" xlink:href="#mba35497288" y="44.494125"/>
      </g>
     </g>
    </g>
    <g id="ytick_30">
     <g id="line2d_97">
      <g>
       <use style="stroke:#000000;stroke-width:0.6;" x="48.982813" xlink:href="#mba35497288" y="37.102125"/>
      </g>
     </g>
    </g>
    <g id="ytick_31">
     <g id="line2d_98">
      <g>
       <use style="stroke:#000000;stroke-width:0.6;" x="48.982813" xlink:href="#mba35497288" y="29.710125"/>
      </g>
     </g>
    </g>
    <g id="text_14">
     <!-- Magnitude [dBμV] -->
     <g transform="translate(14.798438 178.384844)rotate(-90)scale(0.1 -0.1)">
      <defs>
       <path d="M 34.28125 27.484375 
Q 23.390625 27.484375 19.1875 25 
Q 14.984375 22.515625 14.984375 16.5 
Q 14.984375 11.71875 18.140625 8.90625 
Q 21.296875 6.109375 26.703125 6.109375 
Q 34.1875 6.109375 38.703125 11.40625 
Q 43.21875 16.703125 43.21875 25.484375 
L 43.21875 27.484375 
z
M 52.203125 31.203125 
L 52.203125 0 
L 43.21875 0 
L 43.21875 8.296875 
Q 40.140625 3.328125 35.546875 0.953125 
Q 30.953125 -1.421875 24.3125 -1.421875 
Q 15.921875 -1.421875 10.953125 3.296875 
Q 6 8.015625 6 15.921875 
Q 6 25.140625 12.171875 29.828125 
Q 18.359375 34.515625 30.609375 34.515625 
L 43.21875 34.515625 
L 43.21875 35.40625 
Q 43.21875 41.609375 39.140625 45 
Q 35.0625 48.390625 27.6875 48.390625 
Q 23 48.390625 18.546875 47.265625 
Q 14.109375 46.140625 10.015625 43.890625 
L 10.015625 52.203125 
Q 14.9375 54.109375 19.578125 55.046875 
Q 24.21875 56 28.609375 56 
Q 40.484375 56 46.34375 49.84375 
Q 52.203125 43.703125 52.203125 31.203125 
z
" id="DejaVuSans-97"/>
       <path d="M 45.40625 27.984375 
Q 45.40625 37.75 41.375 43.109375 
Q 37.359375 48.484375 30.078125 48.484375 
Q 22.859375 48.484375 18.828125 43.109375 
Q 14.796875 37.75 14.796875 27.984375 
Q 14.796875 18.265625 18.828125 12.890625 
Q 22.859375 7.515625 30.078125 7.515625 
Q 37.359375 7.515625 41.375 12.890625 
Q 45.40625 18.265625 45.40625 27.984375 
z
M 54.390625 6.78125 
Q 54.390625 -7.171875 48.1875 -13.984375 
Q 42 -20.796875 29.203125 -20.796875 
Q 24.46875 -20.796875 20.265625 -20.09375 
Q 16.0625 -19.390625 12.109375 -17.921875 
L 12.109375 -9.1875 
Q 16.0625 -11.328125 19.921875 -12.34375 
Q 23.78125 -13.375 27.78125 -13.375 
Q 36.625 -13.375 41.015625 -8.765625 
Q 45.40625 -4.15625 45.40625 5.171875 
L 45.40625 9.625 
Q 42.625 4.78125 38.28125 2.390625 
Q 33.9375 0 27.875 0 
Q 17.828125 0 11.671875 7.65625 
Q 5.515625 15.328125 5.515625 27.984375 
Q 5.515625 40.671875 11.671875 48.328125 
Q 17.828125 56 27.875 56 
Q 33.9375 56 38.28125 53.609375 
Q 42.625 51.21875 45.40625 46.390625 
L 45.40625 54.6875 
L 54.390625 54.6875 
z
" id="DejaVuSans-103"/>
       <path d="M 9.421875 54.6875 
L 18.40625 54.6875 
L 18.40625 0 
L 9.421875 0 
z
M 9.421875 75.984375 
L 18.40625 75.984375 
L 18.40625 64.59375 
L 9.421875 64.59375 
z
" id="DejaVuSans-105"/>
       <path d="M 18.3125 70.21875 
L 18.3125 54.6875 
L 36.8125 54.6875 
L 36.8125 47.703125 
L 18.3125 47.703125 
L 18.3125 18.015625 
Q 18.3125 11.328125 20.140625 9.421875 
Q 21.96875 7.515625 27.59375 7.515625 
L 36.8125 7.515625 
L 36.8125 0 
L 27.59375 0 
Q 17.1875 0 13.234375 3.875 
Q 9.28125 7.765625 9.28125 18.015625 
L 9.28125 47.703125 
L 2.6875 47.703125 
L 2.6875 54.6875 
L 9.28125 54.6875 
L 9.28125 70.21875 
z
" id="DejaVuSans-116"/>
       <path d="M 45.40625 46.390625 
L 45.40625 75.984375 
L 54.390625 75.984375 
L 54.390625 0 
L 45.40625 0 
L 45.40625 8.203125 
Q 42.578125 3.328125 38.25 0.953125 
Q 33.9375 -1.421875 27.875 -1.421875 
Q 17.96875 -1.421875 11.734375 6.484375 
Q 5.515625 14.40625 5.515625 27.296875 
Q 5.515625 40.1875 11.734375 48.09375 
Q 17.96875 56 27.875 56 
Q 33.9375 56 38.25 53.625 
Q 42.578125 51.265625 45.40625 46.390625 
z
M 14.796875 27.296875 
Q 14.796875 17.390625 18.875 11.75 
Q 22.953125 6.109375 30.078125 6.109375 
Q 37.203125 6.109375 41.296875 11.75 
Q 45.40625 17.390625 45.40625 27.296875 
Q 45.40625 37.203125 41.296875 42.84375 
Q 37.203125 48.484375 30.078125 48.484375 
Q 22.953125 48.484375 18.875 42.84375 
Q 14.796875 37.203125 14.796875 27.296875 
z
" id="DejaVuSans-100"/>
       <path id="DejaVuSans-32"/>
       <path d="M 8.59375 75.984375 
L 29.296875 75.984375 
L 29.296875 69 
L 17.578125 69 
L 17.578125 -6.203125 
L 29.296875 -6.203125 
L 29.296875 -13.1875 
L 8.59375 -13.1875 
z
" id="DejaVuSans-91"/>
       <path d="M 19.671875 34.8125 
L 19.671875 8.109375 
L 35.5 8.109375 
Q 43.453125 8.109375 47.28125 11.40625 
Q 51.125 14.703125 51.125 21.484375 
Q 51.125 28.328125 47.28125 31.5625 
Q 43.453125 34.8125 35.5 34.8125 
z
M 19.671875 64.796875 
L 19.671875 42.828125 
L 34.28125 42.828125 
Q 41.5 42.828125 45.03125 45.53125 
Q 48.578125 48.25 48.578125 53.8125 
Q 48.578125 59.328125 45.03125 62.0625 
Q 41.5 64.796875 34.28125 64.796875 
z
M 9.8125 72.90625 
L 35.015625 72.90625 
Q 46.296875 72.90625 52.390625 68.21875 
Q 58.5 63.53125 58.5 54.890625 
Q 58.5 48.1875 55.375 44.234375 
Q 52.25 40.28125 46.1875 39.3125 
Q 53.46875 37.75 57.5 32.78125 
Q 61.53125 27.828125 61.53125 20.40625 
Q 61.53125 10.640625 54.890625 5.3125 
Q 48.25 0 35.984375 0 
L 9.8125 0 
z
" id="DejaVuSans-66"/>
       <path d="M 8.5 -20.796875 
L 8.5 54.6875 
L 17.484375 54.6875 
L 17.484375 20.703125 
Q 17.484375 13.625 20.84375 10 
Q 24.21875 6.390625 30.8125 6.390625 
Q 38.03125 6.390625 41.671875 10.484375 
Q 45.3125 14.59375 45.3125 22.796875 
L 45.3125 54.6875 
L 54.296875 54.6875 
L 54.296875 12.59375 
Q 54.296875 9.671875 55.140625 8.28125 
Q 56 6.890625 57.8125 6.890625 
Q 58.25 6.890625 59.03125 7.15625 
Q 59.8125 7.421875 61.1875 8.015625 
L 61.1875 0.78125 
Q 59.1875 -0.34375 57.390625 -0.875 
Q 55.609375 -1.421875 53.90625 -1.421875 
Q 50.53125 -1.421875 48.53125 0.484375 
Q 46.53125 2.390625 45.796875 6.296875 
Q 43.359375 2.4375 39.8125 0.5 
Q 36.28125 -1.421875 31.5 -1.421875 
Q 26.515625 -1.421875 23.015625 0.484375 
Q 19.53125 2.390625 17.484375 6.203125 
L 17.484375 -20.796875 
z
" id="DejaVuSans-956"/>
       <path d="M 28.609375 0 
L 0.78125 72.90625 
L 11.078125 72.90625 
L 34.1875 11.53125 
L 57.328125 72.90625 
L 67.578125 72.90625 
L 39.796875 0 
z
" id="DejaVuSans-86"/>
       <path d="M 30.421875 75.984375 
L 30.421875 -13.1875 
L 9.71875 -13.1875 
L 9.71875 -6.203125 
L 21.390625 -6.203125 
L 21.390625 69 
L 9.71875 69 
L 9.71875 75.984375 
z
" id="DejaVuSans-93"/>
      </defs>
      <use xlink:href="#DejaVuSans-77"/>
      <use x="86.279297" xlink:href="#DejaVuSans-97"/>
      <use x="147.558594" xlink:href="#DejaVuSans-103"/>
      <use x="211.035156" xlink:href="#DejaVuSans-110"/>
      <use x="274.414062" xlink:href="#DejaVuSans-105"/>
      <use x="302.197266" xlink:href="#DejaVuSans-116"/>
      <use x="341.40625" xlink:href="#DejaVuSans-117"/>
      <use x="404.785156" xlink:href="#DejaVuSans-100"/>
      <use x="468.261719" xlink:href="#DejaVuSans-101"/>
      <use x="529.785156" xlink:href="#DejaVuSans-32"/>
      <use x="561.572266" xlink:href="#DejaVuSans-91"/>
      <use x="600.585938" xlink:href="#DejaVuSans-100"/>
      <use x="664.0625" xlink:href="#DejaVuSans-66"/>
      <use x="732.666016" xlink:href="#DejaVuSans-956"/>
      <use x="796.289062" xlink:href="#DejaVuSans-86"/>
      <use x="864.697266" xlink:href="#DejaVuSans-93"/>
     </g>
    </g>
   </g>
   <g id="line2d_99">
    <path clip-path="url(#pe675c9fc65)" d="M 48.982813 92.202928 
L 182.170649 170.926808 
L 249.017887 176.964926 
L 294.008964 176.568741 
L 327.967216 194.628702 
L 355.251867 186.830674 
L 378.060018 187.31577 
L 397.655603 191.416752 
L 414.832884 200.278389 
L 430.123713 164.228288 
L 443.90174 191.768837 
L 456.439539 180.533359 
L 467.942067 181.202616 
L 478.567327 189.662032 
L 488.439704 183.921009 
L 497.658868 187.019883 
L 506.305923 188.218537 
L 514.447743 195.93115 
L 522.140126 189.830177 
L 529.430103 198.745417 
L 536.357693 198.523358 
L 542.957224 189.76287 
L 549.258367 199.176851 
L 555.286942 199.09877 
L 561.065554 203.693899 
L 566.614109 199.493798 
L 571.950227 192.873275 
L 577.089576 197.372586 
L 582.046154 199.408417 
L 586.832514 190.270944 
L 591.459962 192.707979 
L 595.93871 189.769127 
L 600.278019 190.912004 
L 604.48631 191.455778 
L 608.571264 188.467921 
L 612.539903 205.305485 
L 616.39867 199.980754 
L 620.153485 185.471152 
L 623.809801 194.328671 
L 627.372654 203.357382 
L 630.846704 190.071752 
L 634.236271 203.498769 
L 637.545365 193.519044 
L 640.77772 194.754717 
L 643.936814 205.69338 
L 647.025895 205.075982 
L 650.047998 197.153824 
L 653.005967 196.111027 
L 655.902467 205.24548 
L 658.740001 201.025273 
L 661.520922 199.910315 
L 664.247446 192.894424 
L 666.921658 195.739035 
L 672.12092 197.268477 
L 674.649589 123.439898 
L 677.133201 173.735775 
L 679.573335 197.670868 
L 681.971485 200.14374 
L 684.329073 199.610285 
L 686.647447 204.758525 
L 688.927892 198.555025 
L 691.171627 199.167404 
L 697.693942 189.958366 
L 703.924658 195.749495 
L 709.888736 196.163022 
L 715.608063 116.842863 
L 721.101939 189.608624 
L 726.387465 197.466993 
L 731.479869 202.260047 
L 736.392767 212.063251 
L 741.138385 203.049372 
L 745.72774 152.7917 
L 750.170795 193.652562 
L 754.476591 197.971856 
L 758.653354 191.659283 
L 762.708594 196.415596 
L 766.649183 203.819578 
L 770.481426 193.240528 
L 774.211122 189.06172 
L 777.843615 191.801517 
L 781.383845 202.167895 
L 784.836382 188.741188 
L 788.205466 200.901372 
L 791.495036 199.085856 
L 794.708759 188.995059 
L 797.850053 200.607262 
L 800.922113 201.930327 
L 803.927923 191.345663 
L 806.870282 204.553101 
L 809.751812 193.533902 
L 812.574978 202.576347 
L 815.342097 198.684736 
L 818.055351 199.764279 
L 820.716798 198.440793 
L 823.328379 200.423863 
L 825.891928 196.296034 
L 828.409181 197.701549 
L 830.881779 192.365737 
L 833.311279 191.578751 
L 835.699158 192.160565 
L 838.046819 188.554237 
L 840.355593 192.261909 
L 842.626748 154.510355 
L 844.86149 192.345065 
L 847.060969 198.409492 
L 849.226279 183.27014 
L 851.358467 195.208881 
L 853.45853 190.587835 
L 855.527422 183.396299 
L 857.566055 191.258079 
L 859.575302 190.621702 
L 861.555997 191.91056 
L 863.50894 207.768037 
L 865.434899 192.828724 
L 867.334609 183.740005 
L 869.208775 189.082192 
L 871.058077 190.316201 
L 872.883164 193.828492 
L 874.684663 192.703411 
L 876.463176 187.104 
L 878.219282 202.032629 
L 879.953538 195.222697 
L 881.666482 187.171733 
L 883.358631 197.679805 
L 885.030484 185.884764 
L 886.682522 185.828677 
L 888.315209 184.44203 
L 889.928993 187.139951 
L 891.524307 184.823635 
L 893.101569 191.604945 
L 894.661183 186.357283 
L 896.20354 193.698411 
L 897.729017 177.795957 
L 899.237979 103.46742 
L 900.730781 191.05821 
L 902.207765 195.707424 
L 903.669263 186.015321 
L 905.115595 177.449346 
L 906.547074 189.935443 
L 907.964002 162.047578 
L 909.366671 181.515815 
L 910.755365 192.164963 
L 912.130361 191.512767 
L 913.491925 179.465577 
L 914.840319 186.515276 
L 917.498593 188.061246 
L 918.808958 183.142317 
L 920.10712 186.680661 
L 921.393302 188.544875 
L 922.667725 184.240299 
L 923.930602 182.776868 
L 925.182139 188.992294 
L 926.42254 183.116205 
L 927.651999 189.196506 
L 928.870709 175.125076 
L 930.078856 192.667682 
L 931.276621 193.981976 
L 932.464181 187.006433 
L 933.641709 187.964355 
L 934.809373 194.585444 
L 935.967336 188.554884 
L 937.115759 190.905207 
L 938.254798 180.890684 
L 939.384604 137.371353 
L 940.505326 184.940772 
L 941.617109 180.47919 
L 942.720094 181.376176 
L 943.81442 186.236087 
L 944.900222 189.533618 
L 945.97763 148.6339 
L 947.046775 178.817044 
L 948.107782 194.585529 
L 949.160773 185.95667 
L 950.205869 184.803503 
L 951.243188 186.431783 
L 952.272844 185.930698 
L 953.294949 190.337409 
L 954.309615 188.287312 
L 955.316948 188.321655 
L 956.317053 184.68349 
L 957.310033 189.13038 
L 958.29599 190.074657 
L 959.275022 185.434976 
L 960.247225 188.909899 
L 961.212694 184.350048 
L 962.171522 178.752271 
L 963.123799 182.889688 
L 964.069615 177.936217 
L 965.009056 185.970629 
L 965.942208 189.823295 
L 966.869154 191.739705 
L 967.789977 194.866184 
L 968.704757 193.796458 
L 969.613572 194.349565 
L 970.5165 149.034143 
L 971.413617 188.669737 
L 972.304997 203.858042 
L 973.190713 188.095844 
L 974.070836 186.893949 
L 974.945437 182.613401 
L 975.814584 117.961627 
L 976.678346 187.060266 
L 977.536788 187.97276 
L 978.389975 190.640481 
L 979.237972 171.865474 
L 980.080841 188.209286 
L 980.918644 187.867439 
L 981.751441 192.285286 
L 982.579293 198.127313 
L 983.402256 191.45716 
L 984.22039 196.365936 
L 985.033749 188.379124 
L 985.84239 188.950984 
L 986.646366 193.195186 
L 988.24054 178.971936 
L 989.030842 195.575173 
L 989.816687 185.488634 
L 990.598128 200.104207 
L 991.375212 183.88613 
L 992.147987 189.325599 
L 992.916502 190.099387 
L 993.680803 183.117077 
L 994.440936 186.306891 
L 995.196947 185.382271 
L 995.948879 177.965966 
L 996.696776 190.527942 
L 997.440682 193.771304 
L 998.180639 191.458994 
L 998.916689 184.514132 
L 999.648872 185.81379 
L 1000.377229 106.962283 
L 1001.1018 189.689131 
L 1001.822624 181.323641 
L 1002.53974 185.485138 
L 1003.253185 197.299243 
L 1004.669213 177.81389 
L 1005.371869 173.395932 
L 1006.071 182.941403 
L 1006.766643 180.93806 
L 1007.458831 174.851498 
L 1008.832979 196.996197 
L 1009.515007 176.775491 
L 1010.193713 185.574836 
L 1010.869131 182.292928 
L 1011.541291 172.391877 
L 1011.87616 183.990124 
L 1013.538542 177.009282 
L 1015.181331 174.850537 
L 1016.804984 174.243118 
L 1018.409942 179.996774 
L 1019.99663 178.194201 
L 1021.56546 181.794918 
L 1023.116829 170.170052 
L 1024.651121 187.121061 
L 1026.168709 170.711065 
L 1027.669952 179.29664 
L 1029.155198 177.400729 
L 1030.624786 193.522541 
L 1032.07904 198.691023 
L 1033.518279 188.250962 
L 1034.942809 184.859449 
L 1036.352928 191.008976 
L 1037.748924 174.828912 
L 1040.499661 190.281182 
L 1041.854937 196.068194 
L 1043.197163 193.098044 
L 1044.526587 188.934744 
L 1045.843451 186.519593 
L 1047.147991 186.688836 
L 1048.440434 185.535924 
L 1049.721004 187.117254 
L 1052.247382 178.732479 
L 1053.493604 195.279515 
L 1054.728783 185.247315 
L 1055.953113 190.416899 
L 1057.166783 190.828593 
L 1058.369976 114.95733 
L 1059.562872 188.930061 
L 1060.745645 184.414 
L 1061.918467 193.544506 
L 1063.081503 193.984596 
L 1064.234915 123.480587 
L 1065.378862 197.225308 
L 1066.513496 194.917788 
L 1067.638969 188.911592 
L 1068.755427 185.465116 
L 1069.863013 192.373011 
L 1070.961869 204.515764 
L 1072.052129 179.658227 
L 1073.133927 194.407289 
L 1074.207395 206.115932 
L 1075.272658 186.881656 
L 1076.329842 189.243655 
L 1077.379069 194.436528 
L 1078.420456 184.463009 
L 1079.454121 185.791033 
L 1080.480177 184.791546 
L 1081.498735 193.859028 
L 1083.513791 193.328959 
L 1084.510499 197.844089 
L 1085.500131 191.454085 
L 1086.482786 186.958637 
L 1087.458562 192.078986 
L 1088.427555 192.472777 
L 1089.389858 199.103057 
L 1090.345563 190.68185 
L 1091.29476 189.622414 
L 1092.237537 180.722964 
L 1093.17398 187.563151 
L 1094.104174 187.669995 
L 1095.028202 197.050761 
L 1095.946144 195.087261 
L 1096.858081 197.895663 
L 1097.764091 187.053724 
L 1098.664249 191.833435 
L 1099.558632 187.312385 
L 1100.447312 196.01047 
L 1101.330363 187.275528 
L 1102.207854 184.155139 
L 1103.079856 187.899612 
L 1103.946437 187.256638 
L 1104.807663 188.173586 
L 1105.663601 148.406056 
L 1106.514315 183.116345 
L 1107.359869 183.152326 
L 1108.200324 184.978446 
L 1109.035741 187.450951 
L 1109.866182 120.026302 
L 1110.691705 189.714847 
L 1111.512367 192.531259 
L 1112.328225 188.270532 
L 1113.139336 177.67899 
L 1113.945755 133.124501 
L 1114.747535 187.024621 
L 1115.544729 184.575493 
L 1116.33739 185.281377 
L 1117.125569 193.43425 
L 1117.909316 166.977673 
L 1118.688681 189.043927 
L 1119.463713 189.044604 
L 1120.234458 174.021114 
L 1121.000966 192.69134 
L 1121.763282 196.379781 
L 1122.521451 184.269032 
L 1123.275518 185.583776 
L 1124.025529 189.630364 
L 1124.771525 187.670416 
L 1125.51355 182.674392 
L 1126.251645 184.334085 
L 1126.985853 182.756141 
L 1127.716214 183.421591 
L 1128.442768 191.207126 
L 1129.165555 183.010122 
L 1129.884612 182.567412 
L 1130.59998 183.828069 
L 1131.311695 177.740887 
L 1132.019794 187.553733 
L 1132.724314 181.259238 
L 1133.425292 183.512305 
L 1134.122762 186.815221 
L 1134.816759 179.589818 
L 1135.507318 195.750005 
L 1136.194473 179.114028 
L 1136.878256 182.193868 
L 1137.558702 177.026794 
L 1138.235843 181.769201 
L 1138.909709 191.52788 
L 1139.580334 193.940436 
L 1140.247747 181.549847 
L 1140.911981 182.947889 
L 1141.573063 190.305768 
L 1142.231026 181.579737 
L 1142.885897 192.835266 
L 1143.537706 179.43704 
L 1144.186481 136.805414 
L 1144.83225 178.094635 
L 1145.475041 191.736434 
L 1146.114882 191.091907 
L 1146.751799 189.689722 
L 1147.385819 120.6613 
L 1148.016968 196.289662 
L 1148.645272 188.508018 
L 1149.270757 185.615329 
L 1149.893448 184.407739 
L 1150.513369 126.452204 
L 1151.130545 190.104886 
L 1151.745001 187.79353 
L 1152.35676 181.263607 
L 1152.965846 194.300249 
L 1153.572281 177.470916 
L 1154.17609 178.534499 
L 1154.777295 183.066575 
L 1155.375917 186.433868 
L 1155.97198 186.598236 
L 1156.565505 182.074506 
L 1157.156513 193.822737 
L 1157.745026 184.601265 
L 1158.331064 182.589603 
L 1158.914649 186.237129 
L 1159.495801 193.285645 
L 1160.650886 183.643088 
L 1161.224858 186.543277 
L 1161.796477 185.694904 
L 1162.365761 178.224571 
L 1162.93273 182.056033 
L 1163.497402 179.973681 
L 1164.059795 185.089488 
L 1164.619929 181.862766 
L 1164.619929 181.862766 
" style="fill:none;stroke:#00429d;stroke-linecap:square;stroke-width:0.4;"/>
   </g>
   <g id="line2d_100">
    <path clip-path="url(#pe675c9fc65)" d="M 48.982813 93.736547 
L 182.170649 180.13252 
L 249.017887 179.691162 
L 294.008964 186.653136 
L 327.967216 187.374732 
L 355.251867 183.047145 
L 378.060018 189.221716 
L 397.655603 184.66708 
L 414.832884 185.942148 
L 430.123713 170.478006 
L 443.90174 174.371421 
L 456.439539 183.561259 
L 467.942067 191.027674 
L 478.567327 197.407639 
L 488.439704 181.734407 
L 497.658868 157.300092 
L 506.305923 177.588053 
L 514.447743 190.813846 
L 522.140126 162.469987 
L 529.430103 200.224386 
L 536.357693 137.640196 
L 542.957224 185.581773 
L 549.258367 190.105563 
L 555.286942 185.196953 
L 561.065554 192.229395 
L 566.614109 146.201292 
L 571.950227 198.951547 
L 577.089576 193.665842 
L 582.046154 194.866495 
L 586.832514 189.455902 
L 591.459962 188.339673 
L 595.93871 203.094068 
L 600.278019 189.533533 
L 604.48631 196.352712 
L 608.571264 198.185429 
L 612.539903 191.945779 
L 616.39867 178.307672 
L 620.153485 178.712709 
L 623.809801 193.738934 
L 627.372654 202.498465 
L 630.846704 198.080137 
L 634.236271 168.425991 
L 637.545365 199.646746 
L 640.77772 187.478897 
L 643.936814 197.644645 
L 647.025895 201.143678 
L 650.047998 155.146311 
L 653.005967 196.668365 
L 655.902467 203.295544 
L 658.740001 192.131662 
L 661.520922 194.93575 
L 664.247446 159.740509 
L 666.921658 192.720102 
L 669.54553 193.394603 
L 672.12092 204.067609 
L 674.649589 85.100495 
L 677.133201 142.935684 
L 679.573335 195.013241 
L 681.971485 202.939202 
L 684.329073 204.184521 
L 686.647447 200.477496 
L 688.927892 185.501633 
L 691.171627 200.461167 
L 697.693942 200.591728 
L 703.924658 197.710656 
L 709.888736 200.990423 
L 715.608063 91.316997 
L 721.101939 187.217442 
L 726.387465 203.829591 
L 731.479869 197.371854 
L 736.392767 206.819366 
L 741.138385 201.167055 
L 745.72774 125.961837 
L 750.170795 192.869383 
L 754.476591 193.351941 
L 758.653354 196.744078 
L 762.708594 193.702698 
L 766.649183 200.679253 
L 770.481426 198.386059 
L 774.211122 195.545398 
L 777.843615 192.550884 
L 781.383845 201.376115 
L 784.836382 189.628306 
L 788.205466 186.711537 
L 791.495036 193.17573 
L 794.708759 203.573521 
L 797.850053 200.333149 
L 800.922113 193.511852 
L 803.927923 198.818594 
L 806.870282 205.54551 
L 809.751812 195.455585 
L 812.574978 197.371063 
L 815.342097 191.389061 
L 818.055351 196.861947 
L 820.716798 190.312169 
L 823.328379 188.15681 
L 825.891928 186.572575 
L 828.409181 190.235669 
L 830.881779 180.317246 
L 833.311279 190.992451 
L 835.699158 200.148788 
L 838.046819 187.397544 
L 840.355593 182.688607 
L 842.626748 141.851433 
L 844.86149 188.634969 
L 847.060969 199.039526 
L 849.226279 193.689274 
L 851.358467 193.249244 
L 853.45853 194.117693 
L 855.527422 186.74904 
L 857.566055 187.86256 
L 859.575302 183.812587 
L 861.555997 187.928545 
L 863.50894 192.978201 
L 865.434899 194.853976 
L 867.334609 192.223589 
L 869.208775 190.509162 
L 871.058077 184.473413 
L 872.883164 181.818184 
L 874.684663 193.397313 
L 876.463176 190.674968 
L 878.219282 192.867861 
L 879.953538 195.360192 
L 881.666482 182.554524 
L 883.358631 203.105374 
L 885.030484 192.791276 
L 886.682522 185.907069 
L 888.315209 183.601017 
L 889.928993 180.631628 
L 891.524307 183.557844 
L 893.101569 192.117621 
L 894.661183 188.003215 
L 896.20354 187.480475 
L 897.729017 186.787475 
L 899.237979 96.555327 
L 900.730781 188.40439 
L 902.207765 186.531715 
L 903.669263 178.634376 
L 905.115595 184.065667 
L 906.547074 188.632514 
L 907.964002 155.644576 
L 909.366671 178.738145 
L 910.755365 196.518322 
L 912.130361 182.558752 
L 913.491925 181.454339 
L 914.840319 176.556082 
L 916.175793 183.25965 
L 917.498593 181.247818 
L 918.808958 181.963264 
L 920.10712 187.321747 
L 921.393302 190.878418 
L 922.667725 184.757118 
L 923.930602 192.290446 
L 925.182139 187.256468 
L 926.42254 194.646494 
L 927.651999 191.805944 
L 928.870709 194.196196 
L 930.078856 195.111906 
L 931.276621 189.994461 
L 932.464181 184.116087 
L 933.641709 189.455732 
L 934.809373 186.226836 
L 935.967336 192.827426 
L 937.115759 180.866435 
L 938.254798 190.764075 
L 939.384604 144.058817 
L 940.505326 198.431291 
L 941.617109 176.938167 
L 942.720094 190.199574 
L 943.81442 190.724033 
L 944.900222 185.772675 
L 945.97763 139.459515 
L 947.046775 180.50059 
L 949.160773 194.941136 
L 950.205869 186.997186 
L 951.243188 191.273196 
L 952.272844 190.090646 
L 953.294949 186.576045 
L 954.309615 176.081871 
L 955.316948 185.242691 
L 956.317053 182.973802 
L 957.310033 189.206293 
L 958.29599 191.966026 
L 959.275022 193.955043 
L 960.247225 189.988399 
L 961.212694 185.528396 
L 962.171522 187.969179 
L 963.123799 189.418173 
L 964.069615 186.943579 
L 965.009056 185.803101 
L 965.942208 190.702463 
L 966.869154 186.866629 
L 967.789977 191.964022 
L 968.704757 185.549178 
L 969.613572 182.008266 
L 970.5165 151.461536 
L 971.413617 189.724069 
L 972.304997 188.944246 
L 973.190713 192.655274 
L 974.070836 190.138102 
L 974.945437 189.953546 
L 975.814584 118.207574 
L 976.678346 192.319153 
L 977.536788 185.427022 
L 978.389975 183.554602 
L 979.237972 191.304918 
L 980.080841 191.441142 
L 980.918644 184.475697 
L 981.751441 192.616814 
L 982.579293 184.961806 
L 983.402256 191.905034 
L 984.22039 192.765023 
L 985.033749 183.971145 
L 985.84239 192.609736 
L 986.646366 187.263405 
L 987.445732 199.266324 
L 989.030842 181.815531 
L 989.816687 186.811189 
L 990.598128 183.547103 
L 991.375212 202.276797 
L 992.147987 190.57684 
L 992.916502 181.242909 
L 993.680803 188.298448 
L 994.440936 183.923463 
L 995.196947 199.051258 
L 995.948879 179.085126 
L 996.696776 189.045901 
L 997.440682 192.524606 
L 998.180639 184.377117 
L 998.916689 194.148429 
L 999.648872 196.035595 
L 1000.377229 115.967336 
L 1001.1018 191.276662 
L 1001.822624 193.047852 
L 1002.53974 188.765131 
L 1003.253185 188.661022 
L 1003.962997 187.855456 
L 1004.669213 175.29813 
L 1005.371869 184.903945 
L 1006.766643 191.676485 
L 1007.458831 185.0358 
L 1008.147598 191.824528 
L 1008.832979 184.001826 
L 1009.515007 183.456614 
L 1010.193713 192.300089 
L 1010.869131 189.397897 
L 1011.541291 181.616002 
L 1011.87616 192.310042 
L 1013.538542 184.132524 
L 1015.181331 183.293628 
L 1016.804984 180.158041 
L 1018.409942 188.297912 
L 1019.99663 185.899736 
L 1021.56546 191.77597 
L 1023.116829 177.777093 
L 1024.651121 184.943282 
L 1026.168709 175.167317 
L 1027.669952 190.281378 
L 1029.155198 185.999643 
L 1030.624786 194.399476 
L 1032.07904 178.763636 
L 1033.518279 188.060089 
L 1034.942809 188.912974 
L 1036.352928 189.4248 
L 1037.748924 186.279456 
L 1039.131078 185.587498 
L 1040.499661 185.544129 
L 1041.854937 192.151118 
L 1043.197163 188.906262 
L 1044.526587 196.546323 
L 1045.843451 193.415752 
L 1047.147991 188.395789 
L 1048.440434 187.931165 
L 1049.721004 191.984694 
L 1050.989917 185.925202 
L 1052.247382 161.470529 
L 1053.493604 196.762602 
L 1054.728783 197.320787 
L 1055.953113 188.861596 
L 1057.166783 197.851987 
L 1058.369976 110.431652 
L 1059.562872 190.455955 
L 1060.745645 191.897812 
L 1061.918467 193.941678 
L 1063.081503 183.407154 
L 1064.234915 135.598529 
L 1065.378862 184.829926 
L 1066.513496 196.010218 
L 1067.638969 191.620483 
L 1068.755427 186.099664 
L 1069.863013 193.490252 
L 1070.961869 194.537111 
L 1072.052129 211.268371 
L 1073.133927 193.848143 
L 1074.207395 194.329433 
L 1075.272658 186.526837 
L 1076.329842 200.776369 
L 1077.379069 191.3634 
L 1078.420456 194.160947 
L 1079.454121 188.774803 
L 1080.480177 194.773526 
L 1081.498735 197.974957 
L 1082.509904 193.78842 
L 1083.513791 198.186445 
L 1084.510499 189.718795 
L 1085.500131 194.060224 
L 1086.482786 188.604909 
L 1087.458562 193.336994 
L 1088.427555 192.431858 
L 1089.389858 190.121127 
L 1090.345563 193.161855 
L 1091.29476 193.033526 
L 1092.237537 204.640851 
L 1093.17398 191.074565 
L 1094.104174 188.968917 
L 1095.028202 187.37586 
L 1095.946144 192.652118 
L 1096.858081 189.186412 
L 1097.764091 190.575202 
L 1098.664249 189.844163 
L 1099.558632 193.295458 
L 1101.330363 179.215879 
L 1102.207854 193.192451 
L 1103.079856 196.697774 
L 1103.946437 180.144843 
L 1104.807663 187.010861 
L 1105.663601 124.920645 
L 1106.514315 192.200973 
L 1107.359869 184.289223 
L 1108.200324 184.596556 
L 1109.035741 175.229946 
L 1109.866182 113.69828 
L 1110.691705 195.493765 
L 1111.512367 183.597716 
L 1112.328225 182.714575 
L 1113.139336 175.019729 
L 1113.945755 152.87139 
L 1114.747535 184.331379 
L 1116.33739 181.182254 
L 1117.125569 185.856678 
L 1117.909316 188.68533 
L 1119.463713 180.129305 
L 1120.234458 185.22267 
L 1121.000966 184.46346 
L 1122.521451 187.47805 
L 1123.275518 189.709237 
L 1124.025529 176.384211 
L 1124.771525 189.178122 
L 1125.51355 185.421833 
L 1126.251645 188.287001 
L 1126.985853 183.76829 
L 1127.716214 181.235721 
L 1128.442768 188.279413 
L 1129.165555 182.883823 
L 1129.884612 193.137802 
L 1130.59998 188.602089 
L 1131.311695 185.142249 
L 1132.019794 178.871693 
L 1132.724314 177.047831 
L 1133.425292 182.047773 
L 1134.122762 183.524347 
L 1134.816759 187.764542 
L 1135.507318 188.993791 
L 1136.194473 179.621567 
L 1136.878256 179.644774 
L 1137.558702 180.283354 
L 1138.235843 186.997947 
L 1138.909709 185.451556 
L 1139.580334 184.357717 
L 1140.247747 188.999346 
L 1140.911981 162.13626 
L 1141.573063 191.119767 
L 1142.231026 188.03533 
L 1142.885897 189.443014 
L 1143.537706 186.377444 
L 1144.186481 130.558431 
L 1144.83225 197.581957 
L 1145.475041 181.145372 
L 1146.114882 183.714598 
L 1146.751799 175.717944 
L 1147.385819 138.32152 
L 1148.016968 185.119999 
L 1148.645272 189.837821 
L 1149.270757 192.370021 
L 1149.893448 195.726513 
L 1150.513369 163.871946 
L 1151.130545 191.157891 
L 1151.745001 187.111415 
L 1152.35676 192.360097 
L 1152.965846 174.246193 
L 1153.572281 179.095134 
L 1154.17609 178.222427 
L 1154.777295 182.976537 
L 1155.375917 185.87154 
L 1155.97198 184.536212 
L 1156.565505 191.723464 
L 1157.156513 191.700283 
L 1157.745026 189.317084 
L 1158.331064 189.057883 
L 1158.914649 181.894263 
L 1159.495801 189.104383 
L 1160.07454 179.480605 
L 1160.650886 182.198662 
L 1161.224858 178.734678 
L 1161.796477 185.357515 
L 1162.93273 175.961972 
L 1163.497402 182.272626 
L 1164.059795 178.874738 
L 1164.619929 184.762389 
L 1164.619929 184.762389 
" style="fill:none;stroke:#ff477b;stroke-linecap:square;stroke-width:0.4;"/>
   </g>
   <g id="patch_3">
    <path d="M 48.982813 244.078125 
L 48.982813 22.318125 
" style="fill:none;stroke:#000000;stroke-linecap:square;stroke-linejoin:miter;stroke-width:0.8;"/>
   </g>
   <g id="patch_4">
    <path d="M 1164.982812 244.078125 
L 1164.982812 22.318125 
" style="fill:none;stroke:#000000;stroke-linecap:square;stroke-linejoin:miter;stroke-width:0.8;"/>
   </g>
   <g id="patch_5">
    <path d="M 48.982813 244.078125 
L 1164.982812 244.078125 
" style="fill:none;stroke:#000000;stroke-linecap:square;stroke-linejoin:miter;stroke-width:0.8;"/>
   </g>
   <g id="patch_6">
    <path d="M 48.982813 22.318125 
L 1164.982812 22.318125 
" style="fill:none;stroke:#000000;stroke-linecap:square;stroke-linejoin:miter;stroke-width:0.8;"/>
   </g>
   <g id="text_15">
    <!-- DIY vs Commercial Probe -->
    <g transform="translate(531.63125 16.318125)scale(0.12 -0.12)">
     <defs>
      <path d="M 19.671875 64.796875 
L 19.671875 8.109375 
L 31.59375 8.109375 
Q 46.6875 8.109375 53.6875 14.9375 
Q 60.6875 21.78125 60.6875 36.53125 
Q 60.6875 51.171875 53.6875 57.984375 
Q 46.6875 64.796875 31.59375 64.796875 
z
M 9.8125 72.90625 
L 30.078125 72.90625 
Q 51.265625 72.90625 61.171875 64.09375 
Q 71.09375 55.28125 71.09375 36.53125 
Q 71.09375 17.671875 61.125 8.828125 
Q 51.171875 0 30.078125 0 
L 9.8125 0 
z
" id="DejaVuSans-68"/>
      <path d="M 9.8125 72.90625 
L 19.671875 72.90625 
L 19.671875 0 
L 9.8125 0 
z
" id="DejaVuSans-73"/>
      <path d="M -0.203125 72.90625 
L 10.40625 72.90625 
L 30.609375 42.921875 
L 50.6875 72.90625 
L 61.28125 72.90625 
L 35.5 34.71875 
L 35.5 0 
L 25.59375 0 
L 25.59375 34.71875 
z
" id="DejaVuSans-89"/>
      <path d="M 2.984375 54.6875 
L 12.5 54.6875 
L 29.59375 8.796875 
L 46.6875 54.6875 
L 56.203125 54.6875 
L 35.6875 0 
L 23.484375 0 
z
" id="DejaVuSans-118"/>
      <path d="M 44.28125 53.078125 
L 44.28125 44.578125 
Q 40.484375 46.53125 36.375 47.5 
Q 32.28125 48.484375 27.875 48.484375 
Q 21.1875 48.484375 17.84375 46.4375 
Q 14.5 44.390625 14.5 40.28125 
Q 14.5 37.15625 16.890625 35.375 
Q 19.28125 33.59375 26.515625 31.984375 
L 29.59375 31.296875 
Q 39.15625 29.25 43.1875 25.515625 
Q 47.21875 21.78125 47.21875 15.09375 
Q 47.21875 7.46875 41.1875 3.015625 
Q 35.15625 -1.421875 24.609375 -1.421875 
Q 20.21875 -1.421875 15.453125 -0.5625 
Q 10.6875 0.296875 5.421875 2 
L 5.421875 11.28125 
Q 10.40625 8.6875 15.234375 7.390625 
Q 20.0625 6.109375 24.8125 6.109375 
Q 31.15625 6.109375 34.5625 8.28125 
Q 37.984375 10.453125 37.984375 14.40625 
Q 37.984375 18.0625 35.515625 20.015625 
Q 33.0625 21.96875 24.703125 23.78125 
L 21.578125 24.515625 
Q 13.234375 26.265625 9.515625 29.90625 
Q 5.8125 33.546875 5.8125 39.890625 
Q 5.8125 47.609375 11.28125 51.796875 
Q 16.75 56 26.8125 56 
Q 31.78125 56 36.171875 55.265625 
Q 40.578125 54.546875 44.28125 53.078125 
z
" id="DejaVuSans-115"/>
      <path d="M 64.40625 67.28125 
L 64.40625 56.890625 
Q 59.421875 61.53125 53.78125 63.8125 
Q 48.140625 66.109375 41.796875 66.109375 
Q 29.296875 66.109375 22.65625 58.46875 
Q 16.015625 50.828125 16.015625 36.375 
Q 16.015625 21.96875 22.65625 14.328125 
Q 29.296875 6.6875 41.796875 6.6875 
Q 48.140625 6.6875 53.78125 8.984375 
Q 59.421875 11.28125 64.40625 15.921875 
L 64.40625 5.609375 
Q 59.234375 2.09375 53.4375 0.328125 
Q 47.65625 -1.421875 41.21875 -1.421875 
Q 24.65625 -1.421875 15.125 8.703125 
Q 5.609375 18.84375 5.609375 36.375 
Q 5.609375 53.953125 15.125 64.078125 
Q 24.65625 74.21875 41.21875 74.21875 
Q 47.75 74.21875 53.53125 72.484375 
Q 59.328125 70.75 64.40625 67.28125 
z
" id="DejaVuSans-67"/>
      <path d="M 30.609375 48.390625 
Q 23.390625 48.390625 19.1875 42.75 
Q 14.984375 37.109375 14.984375 27.296875 
Q 14.984375 17.484375 19.15625 11.84375 
Q 23.34375 6.203125 30.609375 6.203125 
Q 37.796875 6.203125 41.984375 11.859375 
Q 46.1875 17.53125 46.1875 27.296875 
Q 46.1875 37.015625 41.984375 42.703125 
Q 37.796875 48.390625 30.609375 48.390625 
z
M 30.609375 56 
Q 42.328125 56 49.015625 48.375 
Q 55.71875 40.765625 55.71875 27.296875 
Q 55.71875 13.875 49.015625 6.21875 
Q 42.328125 -1.421875 30.609375 -1.421875 
Q 18.84375 -1.421875 12.171875 6.21875 
Q 5.515625 13.875 5.515625 27.296875 
Q 5.515625 40.765625 12.171875 48.375 
Q 18.84375 56 30.609375 56 
z
" id="DejaVuSans-111"/>
      <path d="M 52 44.1875 
Q 55.375 50.25 60.0625 53.125 
Q 64.75 56 71.09375 56 
Q 79.640625 56 84.28125 50.015625 
Q 88.921875 44.046875 88.921875 33.015625 
L 88.921875 0 
L 79.890625 0 
L 79.890625 32.71875 
Q 79.890625 40.578125 77.09375 44.375 
Q 74.3125 48.1875 68.609375 48.1875 
Q 61.625 48.1875 57.5625 43.546875 
Q 53.515625 38.921875 53.515625 30.90625 
L 53.515625 0 
L 44.484375 0 
L 44.484375 32.71875 
Q 44.484375 40.625 41.703125 44.40625 
Q 38.921875 48.1875 33.109375 48.1875 
Q 26.21875 48.1875 22.15625 43.53125 
Q 18.109375 38.875 18.109375 30.90625 
L 18.109375 0 
L 9.078125 0 
L 9.078125 54.6875 
L 18.109375 54.6875 
L 18.109375 46.1875 
Q 21.1875 51.21875 25.484375 53.609375 
Q 29.78125 56 35.6875 56 
Q 41.65625 56 45.828125 52.96875 
Q 50 49.953125 52 44.1875 
z
" id="DejaVuSans-109"/>
      <path d="M 9.421875 75.984375 
L 18.40625 75.984375 
L 18.40625 0 
L 9.421875 0 
z
" id="DejaVuSans-108"/>
      <path d="M 19.671875 64.796875 
L 19.671875 37.40625 
L 32.078125 37.40625 
Q 38.96875 37.40625 42.71875 40.96875 
Q 46.484375 44.53125 46.484375 51.125 
Q 46.484375 57.671875 42.71875 61.234375 
Q 38.96875 64.796875 32.078125 64.796875 
z
M 9.8125 72.90625 
L 32.078125 72.90625 
Q 44.34375 72.90625 50.609375 67.359375 
Q 56.890625 61.8125 56.890625 51.125 
Q 56.890625 40.328125 50.609375 34.8125 
Q 44.34375 29.296875 32.078125 29.296875 
L 19.671875 29.296875 
L 19.671875 0 
L 9.8125 0 
z
" id="DejaVuSans-80"/>
      <path d="M 48.6875 27.296875 
Q 48.6875 37.203125 44.609375 42.84375 
Q 40.53125 48.484375 33.40625 48.484375 
Q 26.265625 48.484375 22.1875 42.84375 
Q 18.109375 37.203125 18.109375 27.296875 
Q 18.109375 17.390625 22.1875 11.75 
Q 26.265625 6.109375 33.40625 6.109375 
Q 40.53125 6.109375 44.609375 11.75 
Q 48.6875 17.390625 48.6875 27.296875 
z
M 18.109375 46.390625 
Q 20.953125 51.265625 25.265625 53.625 
Q 29.59375 56 35.59375 56 
Q 45.5625 56 51.78125 48.09375 
Q 58.015625 40.1875 58.015625 27.296875 
Q 58.015625 14.40625 51.78125 6.484375 
Q 45.5625 -1.421875 35.59375 -1.421875 
Q 29.59375 -1.421875 25.265625 0.953125 
Q 20.953125 3.328125 18.109375 8.203125 
L 18.109375 0 
L 9.078125 0 
L 9.078125 75.984375 
L 18.109375 75.984375 
z
" id="DejaVuSans-98"/>
     </defs>
     <use xlink:href="#DejaVuSans-68"/>
     <use x="77.001953" xlink:href="#DejaVuSans-73"/>
     <use x="106.494141" xlink:href="#DejaVuSans-89"/>
     <use x="167.578125" xlink:href="#DejaVuSans-32"/>
     <use x="199.365234" xlink:href="#DejaVuSans-118"/>
     <use x="258.544922" xlink:href="#DejaVuSans-115"/>
     <use x="310.644531" xlink:href="#DejaVuSans-32"/>
     <use x="342.431641" xlink:href="#DejaVuSans-67"/>
     <use x="412.255859" xlink:href="#DejaVuSans-111"/>
     <use x="473.4375" xlink:href="#DejaVuSans-109"/>
     <use x="570.849609" xlink:href="#DejaVuSans-109"/>
     <use x="668.261719" xlink:href="#DejaVuSans-101"/>
     <use x="729.785156" xlink:href="#DejaVuSans-114"/>
     <use x="768.648438" xlink:href="#DejaVuSans-99"/>
     <use x="823.628906" xlink:href="#DejaVuSans-105"/>
     <use x="851.412109" xlink:href="#DejaVuSans-97"/>
     <use x="912.691406" xlink:href="#DejaVuSans-108"/>
     <use x="940.474609" xlink:href="#DejaVuSans-32"/>
     <use x="972.261719" xlink:href="#DejaVuSans-80"/>
     <use x="1030.814453" xlink:href="#DejaVuSans-114"/>
     <use x="1069.677734" xlink:href="#DejaVuSans-111"/>
     <use x="1130.859375" xlink:href="#DejaVuSans-98"/>
     <use x="1194.335938" xlink:href="#DejaVuSans-101"/>
    </g>
   </g>
   <g id="legend_1">
    <g id="patch_7">
     <path d="M 164.582813 68.670125 
L 288.498438 68.670125 
Q 290.498438 68.670125 290.498438 66.670125 
L 290.498438 38.313875 
Q 290.498438 36.313875 288.498438 36.313875 
L 164.582813 36.313875 
Q 162.582813 36.313875 162.582813 38.313875 
L 162.582813 66.670125 
Q 162.582813 68.670125 164.582813 68.670125 
z
" style="fill:#4c4c4c;opacity:0.5;stroke:#4c4c4c;stroke-linejoin:miter;"/>
    </g>
    <g id="patch_8">
     <path d="M 162.582813 66.670125 
L 286.498438 66.670125 
Q 288.498438 66.670125 288.498438 64.670125 
L 288.498438 36.313875 
Q 288.498438 34.313875 286.498438 34.313875 
L 162.582813 34.313875 
Q 160.582813 34.313875 160.582813 36.313875 
L 160.582813 64.670125 
Q 160.582813 66.670125 162.582813 66.670125 
z
" style="fill:#ffffff;stroke:#cccccc;stroke-linejoin:miter;"/>
    </g>
    <g id="line2d_101">
     <path d="M 167.582813 42.412312 
L 174.582813 42.412312 
L 181.582813 42.412312 
" style="fill:none;stroke:#00429d;stroke-linecap:square;stroke-width:0.4;"/>
    </g>
    <g id="line2d_102"/>
    <g id="text_16">
     <!-- Fischer F-52 Probe -->
     <g transform="translate(192.582813 45.912312)scale(0.1 -0.1)">
      <defs>
       <path d="M 54.890625 33.015625 
L 54.890625 0 
L 45.90625 0 
L 45.90625 32.71875 
Q 45.90625 40.484375 42.875 44.328125 
Q 39.84375 48.1875 33.796875 48.1875 
Q 26.515625 48.1875 22.3125 43.546875 
Q 18.109375 38.921875 18.109375 30.90625 
L 18.109375 0 
L 9.078125 0 
L 9.078125 75.984375 
L 18.109375 75.984375 
L 18.109375 46.1875 
Q 21.34375 51.125 25.703125 53.5625 
Q 30.078125 56 35.796875 56 
Q 45.21875 56 50.046875 50.171875 
Q 54.890625 44.34375 54.890625 33.015625 
z
" id="DejaVuSans-104"/>
       <path d="M 4.890625 31.390625 
L 31.203125 31.390625 
L 31.203125 23.390625 
L 4.890625 23.390625 
z
" id="DejaVuSans-45"/>
       <path d="M 10.796875 72.90625 
L 49.515625 72.90625 
L 49.515625 64.59375 
L 19.828125 64.59375 
L 19.828125 46.734375 
Q 21.96875 47.46875 24.109375 47.828125 
Q 26.265625 48.1875 28.421875 48.1875 
Q 40.625 48.1875 47.75 41.5 
Q 54.890625 34.8125 54.890625 23.390625 
Q 54.890625 11.625 47.5625 5.09375 
Q 40.234375 -1.421875 26.90625 -1.421875 
Q 22.3125 -1.421875 17.546875 -0.640625 
Q 12.796875 0.140625 7.71875 1.703125 
L 7.71875 11.625 
Q 12.109375 9.234375 16.796875 8.0625 
Q 21.484375 6.890625 26.703125 6.890625 
Q 35.15625 6.890625 40.078125 11.328125 
Q 45.015625 15.765625 45.015625 23.390625 
Q 45.015625 31 40.078125 35.4375 
Q 35.15625 39.890625 26.703125 39.890625 
Q 22.75 39.890625 18.8125 39.015625 
Q 14.890625 38.140625 10.796875 36.28125 
z
" id="DejaVuSans-53"/>
      </defs>
      <use xlink:href="#DejaVuSans-70"/>
      <use x="50.269531" xlink:href="#DejaVuSans-105"/>
      <use x="78.052734" xlink:href="#DejaVuSans-115"/>
      <use x="130.152344" xlink:href="#DejaVuSans-99"/>
      <use x="185.132812" xlink:href="#DejaVuSans-104"/>
      <use x="248.511719" xlink:href="#DejaVuSans-101"/>
      <use x="310.035156" xlink:href="#DejaVuSans-114"/>
      <use x="351.148438" xlink:href="#DejaVuSans-32"/>
      <use x="382.935547" xlink:href="#DejaVuSans-70"/>
      <use x="440.455078" xlink:href="#DejaVuSans-45"/>
      <use x="476.539062" xlink:href="#DejaVuSans-53"/>
      <use x="540.162109" xlink:href="#DejaVuSans-50"/>
      <use x="603.785156" xlink:href="#DejaVuSans-32"/>
      <use x="635.572266" xlink:href="#DejaVuSans-80"/>
      <use x="694.125" xlink:href="#DejaVuSans-114"/>
      <use x="732.988281" xlink:href="#DejaVuSans-111"/>
      <use x="794.169922" xlink:href="#DejaVuSans-98"/>
      <use x="857.646484" xlink:href="#DejaVuSans-101"/>
     </g>
    </g>
    <g id="line2d_103">
     <path d="M 167.582813 57.090437 
L 174.582813 57.090437 
L 181.582813 57.090437 
" style="fill:none;stroke:#ff477b;stroke-linecap:square;stroke-width:0.4;"/>
    </g>
    <g id="line2d_104"/>
    <g id="text_17">
     <!-- DIY Probe -->
     <g transform="translate(192.582813 60.590437)scale(0.1 -0.1)">
      <use xlink:href="#DejaVuSans-68"/>
      <use x="77.001953" xlink:href="#DejaVuSans-73"/>
      <use x="106.494141" xlink:href="#DejaVuSans-89"/>
      <use x="167.578125" xlink:href="#DejaVuSans-32"/>
      <use x="199.365234" xlink:href="#DejaVuSans-80"/>
      <use x="257.917969" xlink:href="#DejaVuSans-114"/>
      <use x="296.78125" xlink:href="#DejaVuSans-111"/>
      <use x="357.962891" xlink:href="#DejaVuSans-98"/>
      <use x="421.439453" xlink:href="#DejaVuSans-101"/>
     </g>
    </g>
   </g>
  </g>
 </g>
 <defs>
  <clipPath id="pe675c9fc65">
   <rect height="221.76" width="1116" x="48.982813" y="22.318125"/>
  </clipPath>
 </defs>
</svg>
