<?xml version="1.0" encoding="utf-8" standalone="no"?>
<!DOCTYPE svg PUBLIC "-//W3C//DTD SVG 1.1//EN"
  "http://www.w3.org/Graphics/SVG/1.1/DTD/svg11.dtd">
<!-- Created with matplotlib (https://matplotlib.org/) -->
<svg height="281.634375pt" version="1.1" viewBox="0 0 1185.622656 281.634375" width="1185.622656pt" xmlns="http://www.w3.org/2000/svg" xmlns:xlink="http://www.w3.org/1999/xlink">
 <metadata>
  <rdf:RDF xmlns:cc="http://creativecommons.org/ns#" xmlns:dc="http://purl.org/dc/elements/1.1/" xmlns:rdf="http://www.w3.org/1999/02/22-rdf-syntax-ns#">
   <cc:Work>
    <dc:type rdf:resource="http://purl.org/dc/dcmitype/StillImage"/>
    <dc:date>2021-03-17T13:20:17.076421</dc:date>
    <dc:format>image/svg+xml</dc:format>
    <dc:creator>
     <cc:Agent>
      <dc:title>Matplotlib v3.3.4, https://matplotlib.org/</dc:title>
     </cc:Agent>
    </dc:creator>
   </cc:Work>
  </rdf:RDF>
 </metadata>
 <defs>
  <style type="text/css">*{stroke-linecap:butt;stroke-linejoin:round;}</style>
 </defs>
 <g id="figure_1">
  <g id="patch_1">
   <path d="M 0 281.634375 
L 1185.622656 281.634375 
L 1185.622656 0 
L 0 0 
z
" style="fill:#ffffff;"/>
  </g>
  <g id="axes_1">
   <g id="patch_2">
    <path d="M 48.982813 244.078125 
L 1164.982812 244.078125 
L 1164.982812 22.318125 
L 48.982813 22.318125 
z
" style="fill:#e0e0e0;opacity:0.3;"/>
   </g>
   <g id="matplotlib.axis_1">
    <g id="xtick_1">
     <g id="line2d_1">
      <path clip-path="url(#p6650636d3f)" d="M 48.982813 244.078125 
L 48.982813 22.318125 
" style="fill:none;stroke:#808080;stroke-linecap:square;stroke-width:0.6;"/>
     </g>
     <g id="line2d_2">
      <defs>
       <path d="M 0 0 
L 0 3.5 
" id="me114078dc4" style="stroke:#000000;stroke-width:0.8;"/>
      </defs>
      <g>
       <use style="stroke:#000000;stroke-width:0.8;" x="48.982813" xlink:href="#me114078dc4" y="244.078125"/>
      </g>
     </g>
     <g id="text_1">
      <!-- 10kHz -->
      <g transform="translate(33.340625 258.676562)scale(0.1 -0.1)">
       <defs>
        <path d="M 12.40625 8.296875 
L 28.515625 8.296875 
L 28.515625 63.921875 
L 10.984375 60.40625 
L 10.984375 69.390625 
L 28.421875 72.90625 
L 38.28125 72.90625 
L 38.28125 8.296875 
L 54.390625 8.296875 
L 54.390625 0 
L 12.40625 0 
z
" id="DejaVuSans-49"/>
        <path d="M 31.78125 66.40625 
Q 24.171875 66.40625 20.328125 58.90625 
Q 16.5 51.421875 16.5 36.375 
Q 16.5 21.390625 20.328125 13.890625 
Q 24.171875 6.390625 31.78125 6.390625 
Q 39.453125 6.390625 43.28125 13.890625 
Q 47.125 21.390625 47.125 36.375 
Q 47.125 51.421875 43.28125 58.90625 
Q 39.453125 66.40625 31.78125 66.40625 
z
M 31.78125 74.21875 
Q 44.046875 74.21875 50.515625 64.515625 
Q 56.984375 54.828125 56.984375 36.375 
Q 56.984375 17.96875 50.515625 8.265625 
Q 44.046875 -1.421875 31.78125 -1.421875 
Q 19.53125 -1.421875 13.0625 8.265625 
Q 6.59375 17.96875 6.59375 36.375 
Q 6.59375 54.828125 13.0625 64.515625 
Q 19.53125 74.21875 31.78125 74.21875 
z
" id="DejaVuSans-48"/>
        <path d="M 9.078125 75.984375 
L 18.109375 75.984375 
L 18.109375 31.109375 
L 44.921875 54.6875 
L 56.390625 54.6875 
L 27.390625 29.109375 
L 57.625 0 
L 45.90625 0 
L 18.109375 26.703125 
L 18.109375 0 
L 9.078125 0 
z
" id="DejaVuSans-107"/>
        <path d="M 9.8125 72.90625 
L 19.671875 72.90625 
L 19.671875 43.015625 
L 55.515625 43.015625 
L 55.515625 72.90625 
L 65.375 72.90625 
L 65.375 0 
L 55.515625 0 
L 55.515625 34.71875 
L 19.671875 34.71875 
L 19.671875 0 
L 9.8125 0 
z
" id="DejaVuSans-72"/>
        <path d="M 5.515625 54.6875 
L 48.1875 54.6875 
L 48.1875 46.484375 
L 14.40625 7.171875 
L 48.1875 7.171875 
L 48.1875 0 
L 4.296875 0 
L 4.296875 8.203125 
L 38.09375 47.515625 
L 5.515625 47.515625 
z
" id="DejaVuSans-122"/>
       </defs>
       <use xlink:href="#DejaVuSans-49"/>
       <use x="63.623047" xlink:href="#DejaVuSans-48"/>
       <use x="127.246094" xlink:href="#DejaVuSans-107"/>
       <use x="185.15625" xlink:href="#DejaVuSans-72"/>
       <use x="260.351562" xlink:href="#DejaVuSans-122"/>
      </g>
     </g>
    </g>
    <g id="xtick_2">
     <g id="line2d_3">
      <path clip-path="url(#p6650636d3f)" d="M 272.182813 244.078125 
L 272.182813 22.318125 
" style="fill:none;stroke:#808080;stroke-linecap:square;stroke-width:0.6;"/>
     </g>
     <g id="line2d_4">
      <g>
       <use style="stroke:#000000;stroke-width:0.8;" x="272.182813" xlink:href="#me114078dc4" y="244.078125"/>
      </g>
     </g>
     <g id="text_2">
      <!-- 100kHz -->
      <g transform="translate(253.359375 258.676562)scale(0.1 -0.1)">
       <use xlink:href="#DejaVuSans-49"/>
       <use x="63.623047" xlink:href="#DejaVuSans-48"/>
       <use x="127.246094" xlink:href="#DejaVuSans-48"/>
       <use x="190.869141" xlink:href="#DejaVuSans-107"/>
       <use x="248.779297" xlink:href="#DejaVuSans-72"/>
       <use x="323.974609" xlink:href="#DejaVuSans-122"/>
      </g>
     </g>
    </g>
    <g id="xtick_3">
     <g id="line2d_5">
      <path clip-path="url(#p6650636d3f)" d="M 495.382812 244.078125 
L 495.382812 22.318125 
" style="fill:none;stroke:#808080;stroke-linecap:square;stroke-width:0.6;"/>
     </g>
     <g id="line2d_6">
      <g>
       <use style="stroke:#000000;stroke-width:0.8;" x="495.382812" xlink:href="#me114078dc4" y="244.078125"/>
      </g>
     </g>
     <g id="text_3">
      <!-- 1MHz -->
      <g transform="translate(481.503125 258.676562)scale(0.1 -0.1)">
       <defs>
        <path d="M 9.8125 72.90625 
L 24.515625 72.90625 
L 43.109375 23.296875 
L 61.8125 72.90625 
L 76.515625 72.90625 
L 76.515625 0 
L 66.890625 0 
L 66.890625 64.015625 
L 48.09375 14.015625 
L 38.1875 14.015625 
L 19.390625 64.015625 
L 19.390625 0 
L 9.8125 0 
z
" id="DejaVuSans-77"/>
       </defs>
       <use xlink:href="#DejaVuSans-49"/>
       <use x="63.623047" xlink:href="#DejaVuSans-77"/>
       <use x="149.902344" xlink:href="#DejaVuSans-72"/>
       <use x="225.097656" xlink:href="#DejaVuSans-122"/>
      </g>
     </g>
    </g>
    <g id="xtick_4">
     <g id="line2d_7">
      <path clip-path="url(#p6650636d3f)" d="M 718.582813 244.078125 
L 718.582813 22.318125 
" style="fill:none;stroke:#808080;stroke-linecap:square;stroke-width:0.6;"/>
     </g>
     <g id="line2d_8">
      <g>
       <use style="stroke:#000000;stroke-width:0.8;" x="718.582813" xlink:href="#me114078dc4" y="244.078125"/>
      </g>
     </g>
     <g id="text_4">
      <!-- 10MHz -->
      <g transform="translate(701.521875 258.676562)scale(0.1 -0.1)">
       <use xlink:href="#DejaVuSans-49"/>
       <use x="63.623047" xlink:href="#DejaVuSans-48"/>
       <use x="127.246094" xlink:href="#DejaVuSans-77"/>
       <use x="213.525391" xlink:href="#DejaVuSans-72"/>
       <use x="288.720703" xlink:href="#DejaVuSans-122"/>
      </g>
     </g>
    </g>
    <g id="xtick_5">
     <g id="line2d_9">
      <path clip-path="url(#p6650636d3f)" d="M 941.782812 244.078125 
L 941.782812 22.318125 
" style="fill:none;stroke:#808080;stroke-linecap:square;stroke-width:0.6;"/>
     </g>
     <g id="line2d_10">
      <g>
       <use style="stroke:#000000;stroke-width:0.8;" x="941.782812" xlink:href="#me114078dc4" y="244.078125"/>
      </g>
     </g>
     <g id="text_5">
      <!-- 100MHz -->
      <g transform="translate(921.540625 258.676562)scale(0.1 -0.1)">
       <use xlink:href="#DejaVuSans-49"/>
       <use x="63.623047" xlink:href="#DejaVuSans-48"/>
       <use x="127.246094" xlink:href="#DejaVuSans-48"/>
       <use x="190.869141" xlink:href="#DejaVuSans-77"/>
       <use x="277.148438" xlink:href="#DejaVuSans-72"/>
       <use x="352.34375" xlink:href="#DejaVuSans-122"/>
      </g>
     </g>
    </g>
    <g id="xtick_6">
     <g id="line2d_11">
      <path clip-path="url(#p6650636d3f)" d="M 1164.982813 244.078125 
L 1164.982813 22.318125 
" style="fill:none;stroke:#808080;stroke-linecap:square;stroke-width:0.6;"/>
     </g>
     <g id="line2d_12">
      <g>
       <use style="stroke:#000000;stroke-width:0.8;" x="1164.982813" xlink:href="#me114078dc4" y="244.078125"/>
      </g>
     </g>
     <g id="text_6">
      <!-- 1GHz -->
      <g transform="translate(1151.542969 258.676562)scale(0.1 -0.1)">
       <defs>
        <path d="M 59.515625 10.40625 
L 59.515625 29.984375 
L 43.40625 29.984375 
L 43.40625 38.09375 
L 69.28125 38.09375 
L 69.28125 6.78125 
Q 63.578125 2.734375 56.6875 0.65625 
Q 49.8125 -1.421875 42 -1.421875 
Q 24.90625 -1.421875 15.25 8.5625 
Q 5.609375 18.5625 5.609375 36.375 
Q 5.609375 54.25 15.25 64.234375 
Q 24.90625 74.21875 42 74.21875 
Q 49.125 74.21875 55.546875 72.453125 
Q 61.96875 70.703125 67.390625 67.28125 
L 67.390625 56.78125 
Q 61.921875 61.421875 55.765625 63.765625 
Q 49.609375 66.109375 42.828125 66.109375 
Q 29.4375 66.109375 22.71875 58.640625 
Q 16.015625 51.171875 16.015625 36.375 
Q 16.015625 21.625 22.71875 14.15625 
Q 29.4375 6.6875 42.828125 6.6875 
Q 48.046875 6.6875 52.140625 7.59375 
Q 56.25 8.5 59.515625 10.40625 
z
" id="DejaVuSans-71"/>
       </defs>
       <use xlink:href="#DejaVuSans-49"/>
       <use x="63.623047" xlink:href="#DejaVuSans-71"/>
       <use x="141.113281" xlink:href="#DejaVuSans-72"/>
       <use x="216.308594" xlink:href="#DejaVuSans-122"/>
      </g>
     </g>
    </g>
    <g id="xtick_7">
     <g id="line2d_13">
      <path clip-path="url(#p6650636d3f)" d="M 116.172708 244.078125 
L 116.172708 22.318125 
" style="fill:none;stroke:#808080;stroke-dasharray:0.3,0.495;stroke-dashoffset:0;stroke-width:0.3;"/>
     </g>
     <g id="line2d_14">
      <defs>
       <path d="M 0 0 
L 0 2 
" id="mbef0c79eea" style="stroke:#000000;stroke-width:0.6;"/>
      </defs>
      <g>
       <use style="stroke:#000000;stroke-width:0.6;" x="116.172708" xlink:href="#mbef0c79eea" y="244.078125"/>
      </g>
     </g>
    </g>
    <g id="xtick_8">
     <g id="line2d_15">
      <path clip-path="url(#p6650636d3f)" d="M 155.476277 244.078125 
L 155.476277 22.318125 
" style="fill:none;stroke:#808080;stroke-dasharray:0.3,0.495;stroke-dashoffset:0;stroke-width:0.3;"/>
     </g>
     <g id="line2d_16">
      <g>
       <use style="stroke:#000000;stroke-width:0.6;" x="155.476277" xlink:href="#mbef0c79eea" y="244.078125"/>
      </g>
     </g>
    </g>
    <g id="xtick_9">
     <g id="line2d_17">
      <path clip-path="url(#p6650636d3f)" d="M 183.362603 244.078125 
L 183.362603 22.318125 
" style="fill:none;stroke:#808080;stroke-dasharray:0.3,0.495;stroke-dashoffset:0;stroke-width:0.3;"/>
     </g>
     <g id="line2d_18">
      <g>
       <use style="stroke:#000000;stroke-width:0.6;" x="183.362603" xlink:href="#mbef0c79eea" y="244.078125"/>
      </g>
     </g>
    </g>
    <g id="xtick_10">
     <g id="line2d_19">
      <path clip-path="url(#p6650636d3f)" d="M 204.992917 244.078125 
L 204.992917 22.318125 
" style="fill:none;stroke:#808080;stroke-dasharray:0.3,0.495;stroke-dashoffset:0;stroke-width:0.3;"/>
     </g>
     <g id="line2d_20">
      <g>
       <use style="stroke:#000000;stroke-width:0.6;" x="204.992917" xlink:href="#mbef0c79eea" y="244.078125"/>
      </g>
     </g>
    </g>
    <g id="xtick_11">
     <g id="line2d_21">
      <path clip-path="url(#p6650636d3f)" d="M 222.666172 244.078125 
L 222.666172 22.318125 
" style="fill:none;stroke:#808080;stroke-dasharray:0.3,0.495;stroke-dashoffset:0;stroke-width:0.3;"/>
     </g>
     <g id="line2d_22">
      <g>
       <use style="stroke:#000000;stroke-width:0.6;" x="222.666172" xlink:href="#mbef0c79eea" y="244.078125"/>
      </g>
     </g>
    </g>
    <g id="xtick_12">
     <g id="line2d_23">
      <path clip-path="url(#p6650636d3f)" d="M 237.608695 244.078125 
L 237.608695 22.318125 
" style="fill:none;stroke:#808080;stroke-dasharray:0.3,0.495;stroke-dashoffset:0;stroke-width:0.3;"/>
     </g>
     <g id="line2d_24">
      <g>
       <use style="stroke:#000000;stroke-width:0.6;" x="237.608695" xlink:href="#mbef0c79eea" y="244.078125"/>
      </g>
     </g>
    </g>
    <g id="xtick_13">
     <g id="line2d_25">
      <path clip-path="url(#p6650636d3f)" d="M 250.552498 244.078125 
L 250.552498 22.318125 
" style="fill:none;stroke:#808080;stroke-dasharray:0.3,0.495;stroke-dashoffset:0;stroke-width:0.3;"/>
     </g>
     <g id="line2d_26">
      <g>
       <use style="stroke:#000000;stroke-width:0.6;" x="250.552498" xlink:href="#mbef0c79eea" y="244.078125"/>
      </g>
     </g>
    </g>
    <g id="xtick_14">
     <g id="line2d_27">
      <path clip-path="url(#p6650636d3f)" d="M 261.969741 244.078125 
L 261.969741 22.318125 
" style="fill:none;stroke:#808080;stroke-dasharray:0.3,0.495;stroke-dashoffset:0;stroke-width:0.3;"/>
     </g>
     <g id="line2d_28">
      <g>
       <use style="stroke:#000000;stroke-width:0.6;" x="261.969741" xlink:href="#mbef0c79eea" y="244.078125"/>
      </g>
     </g>
    </g>
    <g id="xtick_15">
     <g id="line2d_29">
      <path clip-path="url(#p6650636d3f)" d="M 339.372708 244.078125 
L 339.372708 22.318125 
" style="fill:none;stroke:#808080;stroke-dasharray:0.3,0.495;stroke-dashoffset:0;stroke-width:0.3;"/>
     </g>
     <g id="line2d_30">
      <g>
       <use style="stroke:#000000;stroke-width:0.6;" x="339.372708" xlink:href="#mbef0c79eea" y="244.078125"/>
      </g>
     </g>
    </g>
    <g id="xtick_16">
     <g id="line2d_31">
      <path clip-path="url(#p6650636d3f)" d="M 378.676277 244.078125 
L 378.676277 22.318125 
" style="fill:none;stroke:#808080;stroke-dasharray:0.3,0.495;stroke-dashoffset:0;stroke-width:0.3;"/>
     </g>
     <g id="line2d_32">
      <g>
       <use style="stroke:#000000;stroke-width:0.6;" x="378.676277" xlink:href="#mbef0c79eea" y="244.078125"/>
      </g>
     </g>
    </g>
    <g id="xtick_17">
     <g id="line2d_33">
      <path clip-path="url(#p6650636d3f)" d="M 406.562603 244.078125 
L 406.562603 22.318125 
" style="fill:none;stroke:#808080;stroke-dasharray:0.3,0.495;stroke-dashoffset:0;stroke-width:0.3;"/>
     </g>
     <g id="line2d_34">
      <g>
       <use style="stroke:#000000;stroke-width:0.6;" x="406.562603" xlink:href="#mbef0c79eea" y="244.078125"/>
      </g>
     </g>
    </g>
    <g id="xtick_18">
     <g id="line2d_35">
      <path clip-path="url(#p6650636d3f)" d="M 428.192917 244.078125 
L 428.192917 22.318125 
" style="fill:none;stroke:#808080;stroke-dasharray:0.3,0.495;stroke-dashoffset:0;stroke-width:0.3;"/>
     </g>
     <g id="line2d_36">
      <g>
       <use style="stroke:#000000;stroke-width:0.6;" x="428.192917" xlink:href="#mbef0c79eea" y="244.078125"/>
      </g>
     </g>
    </g>
    <g id="xtick_19">
     <g id="line2d_37">
      <path clip-path="url(#p6650636d3f)" d="M 445.866172 244.078125 
L 445.866172 22.318125 
" style="fill:none;stroke:#808080;stroke-dasharray:0.3,0.495;stroke-dashoffset:0;stroke-width:0.3;"/>
     </g>
     <g id="line2d_38">
      <g>
       <use style="stroke:#000000;stroke-width:0.6;" x="445.866172" xlink:href="#mbef0c79eea" y="244.078125"/>
      </g>
     </g>
    </g>
    <g id="xtick_20">
     <g id="line2d_39">
      <path clip-path="url(#p6650636d3f)" d="M 460.808695 244.078125 
L 460.808695 22.318125 
" style="fill:none;stroke:#808080;stroke-dasharray:0.3,0.495;stroke-dashoffset:0;stroke-width:0.3;"/>
     </g>
     <g id="line2d_40">
      <g>
       <use style="stroke:#000000;stroke-width:0.6;" x="460.808695" xlink:href="#mbef0c79eea" y="244.078125"/>
      </g>
     </g>
    </g>
    <g id="xtick_21">
     <g id="line2d_41">
      <path clip-path="url(#p6650636d3f)" d="M 473.752498 244.078125 
L 473.752498 22.318125 
" style="fill:none;stroke:#808080;stroke-dasharray:0.3,0.495;stroke-dashoffset:0;stroke-width:0.3;"/>
     </g>
     <g id="line2d_42">
      <g>
       <use style="stroke:#000000;stroke-width:0.6;" x="473.752498" xlink:href="#mbef0c79eea" y="244.078125"/>
      </g>
     </g>
    </g>
    <g id="xtick_22">
     <g id="line2d_43">
      <path clip-path="url(#p6650636d3f)" d="M 485.169741 244.078125 
L 485.169741 22.318125 
" style="fill:none;stroke:#808080;stroke-dasharray:0.3,0.495;stroke-dashoffset:0;stroke-width:0.3;"/>
     </g>
     <g id="line2d_44">
      <g>
       <use style="stroke:#000000;stroke-width:0.6;" x="485.169741" xlink:href="#mbef0c79eea" y="244.078125"/>
      </g>
     </g>
    </g>
    <g id="xtick_23">
     <g id="line2d_45">
      <path clip-path="url(#p6650636d3f)" d="M 562.572708 244.078125 
L 562.572708 22.318125 
" style="fill:none;stroke:#808080;stroke-dasharray:0.3,0.495;stroke-dashoffset:0;stroke-width:0.3;"/>
     </g>
     <g id="line2d_46">
      <g>
       <use style="stroke:#000000;stroke-width:0.6;" x="562.572708" xlink:href="#mbef0c79eea" y="244.078125"/>
      </g>
     </g>
    </g>
    <g id="xtick_24">
     <g id="line2d_47">
      <path clip-path="url(#p6650636d3f)" d="M 601.876277 244.078125 
L 601.876277 22.318125 
" style="fill:none;stroke:#808080;stroke-dasharray:0.3,0.495;stroke-dashoffset:0;stroke-width:0.3;"/>
     </g>
     <g id="line2d_48">
      <g>
       <use style="stroke:#000000;stroke-width:0.6;" x="601.876277" xlink:href="#mbef0c79eea" y="244.078125"/>
      </g>
     </g>
    </g>
    <g id="xtick_25">
     <g id="line2d_49">
      <path clip-path="url(#p6650636d3f)" d="M 629.762603 244.078125 
L 629.762603 22.318125 
" style="fill:none;stroke:#808080;stroke-dasharray:0.3,0.495;stroke-dashoffset:0;stroke-width:0.3;"/>
     </g>
     <g id="line2d_50">
      <g>
       <use style="stroke:#000000;stroke-width:0.6;" x="629.762603" xlink:href="#mbef0c79eea" y="244.078125"/>
      </g>
     </g>
    </g>
    <g id="xtick_26">
     <g id="line2d_51">
      <path clip-path="url(#p6650636d3f)" d="M 651.392917 244.078125 
L 651.392917 22.318125 
" style="fill:none;stroke:#808080;stroke-dasharray:0.3,0.495;stroke-dashoffset:0;stroke-width:0.3;"/>
     </g>
     <g id="line2d_52">
      <g>
       <use style="stroke:#000000;stroke-width:0.6;" x="651.392917" xlink:href="#mbef0c79eea" y="244.078125"/>
      </g>
     </g>
    </g>
    <g id="xtick_27">
     <g id="line2d_53">
      <path clip-path="url(#p6650636d3f)" d="M 669.066172 244.078125 
L 669.066172 22.318125 
" style="fill:none;stroke:#808080;stroke-dasharray:0.3,0.495;stroke-dashoffset:0;stroke-width:0.3;"/>
     </g>
     <g id="line2d_54">
      <g>
       <use style="stroke:#000000;stroke-width:0.6;" x="669.066172" xlink:href="#mbef0c79eea" y="244.078125"/>
      </g>
     </g>
    </g>
    <g id="xtick_28">
     <g id="line2d_55">
      <path clip-path="url(#p6650636d3f)" d="M 684.008695 244.078125 
L 684.008695 22.318125 
" style="fill:none;stroke:#808080;stroke-dasharray:0.3,0.495;stroke-dashoffset:0;stroke-width:0.3;"/>
     </g>
     <g id="line2d_56">
      <g>
       <use style="stroke:#000000;stroke-width:0.6;" x="684.008695" xlink:href="#mbef0c79eea" y="244.078125"/>
      </g>
     </g>
    </g>
    <g id="xtick_29">
     <g id="line2d_57">
      <path clip-path="url(#p6650636d3f)" d="M 696.952498 244.078125 
L 696.952498 22.318125 
" style="fill:none;stroke:#808080;stroke-dasharray:0.3,0.495;stroke-dashoffset:0;stroke-width:0.3;"/>
     </g>
     <g id="line2d_58">
      <g>
       <use style="stroke:#000000;stroke-width:0.6;" x="696.952498" xlink:href="#mbef0c79eea" y="244.078125"/>
      </g>
     </g>
    </g>
    <g id="xtick_30">
     <g id="line2d_59">
      <path clip-path="url(#p6650636d3f)" d="M 708.369741 244.078125 
L 708.369741 22.318125 
" style="fill:none;stroke:#808080;stroke-dasharray:0.3,0.495;stroke-dashoffset:0;stroke-width:0.3;"/>
     </g>
     <g id="line2d_60">
      <g>
       <use style="stroke:#000000;stroke-width:0.6;" x="708.369741" xlink:href="#mbef0c79eea" y="244.078125"/>
      </g>
     </g>
    </g>
    <g id="xtick_31">
     <g id="line2d_61">
      <path clip-path="url(#p6650636d3f)" d="M 785.772708 244.078125 
L 785.772708 22.318125 
" style="fill:none;stroke:#808080;stroke-dasharray:0.3,0.495;stroke-dashoffset:0;stroke-width:0.3;"/>
     </g>
     <g id="line2d_62">
      <g>
       <use style="stroke:#000000;stroke-width:0.6;" x="785.772708" xlink:href="#mbef0c79eea" y="244.078125"/>
      </g>
     </g>
    </g>
    <g id="xtick_32">
     <g id="line2d_63">
      <path clip-path="url(#p6650636d3f)" d="M 825.076277 244.078125 
L 825.076277 22.318125 
" style="fill:none;stroke:#808080;stroke-dasharray:0.3,0.495;stroke-dashoffset:0;stroke-width:0.3;"/>
     </g>
     <g id="line2d_64">
      <g>
       <use style="stroke:#000000;stroke-width:0.6;" x="825.076277" xlink:href="#mbef0c79eea" y="244.078125"/>
      </g>
     </g>
    </g>
    <g id="xtick_33">
     <g id="line2d_65">
      <path clip-path="url(#p6650636d3f)" d="M 852.962603 244.078125 
L 852.962603 22.318125 
" style="fill:none;stroke:#808080;stroke-dasharray:0.3,0.495;stroke-dashoffset:0;stroke-width:0.3;"/>
     </g>
     <g id="line2d_66">
      <g>
       <use style="stroke:#000000;stroke-width:0.6;" x="852.962603" xlink:href="#mbef0c79eea" y="244.078125"/>
      </g>
     </g>
    </g>
    <g id="xtick_34">
     <g id="line2d_67">
      <path clip-path="url(#p6650636d3f)" d="M 874.592917 244.078125 
L 874.592917 22.318125 
" style="fill:none;stroke:#808080;stroke-dasharray:0.3,0.495;stroke-dashoffset:0;stroke-width:0.3;"/>
     </g>
     <g id="line2d_68">
      <g>
       <use style="stroke:#000000;stroke-width:0.6;" x="874.592917" xlink:href="#mbef0c79eea" y="244.078125"/>
      </g>
     </g>
    </g>
    <g id="xtick_35">
     <g id="line2d_69">
      <path clip-path="url(#p6650636d3f)" d="M 892.266172 244.078125 
L 892.266172 22.318125 
" style="fill:none;stroke:#808080;stroke-dasharray:0.3,0.495;stroke-dashoffset:0;stroke-width:0.3;"/>
     </g>
     <g id="line2d_70">
      <g>
       <use style="stroke:#000000;stroke-width:0.6;" x="892.266172" xlink:href="#mbef0c79eea" y="244.078125"/>
      </g>
     </g>
    </g>
    <g id="xtick_36">
     <g id="line2d_71">
      <path clip-path="url(#p6650636d3f)" d="M 907.208695 244.078125 
L 907.208695 22.318125 
" style="fill:none;stroke:#808080;stroke-dasharray:0.3,0.495;stroke-dashoffset:0;stroke-width:0.3;"/>
     </g>
     <g id="line2d_72">
      <g>
       <use style="stroke:#000000;stroke-width:0.6;" x="907.208695" xlink:href="#mbef0c79eea" y="244.078125"/>
      </g>
     </g>
    </g>
    <g id="xtick_37">
     <g id="line2d_73">
      <path clip-path="url(#p6650636d3f)" d="M 920.152498 244.078125 
L 920.152498 22.318125 
" style="fill:none;stroke:#808080;stroke-dasharray:0.3,0.495;stroke-dashoffset:0;stroke-width:0.3;"/>
     </g>
     <g id="line2d_74">
      <g>
       <use style="stroke:#000000;stroke-width:0.6;" x="920.152498" xlink:href="#mbef0c79eea" y="244.078125"/>
      </g>
     </g>
    </g>
    <g id="xtick_38">
     <g id="line2d_75">
      <path clip-path="url(#p6650636d3f)" d="M 931.569741 244.078125 
L 931.569741 22.318125 
" style="fill:none;stroke:#808080;stroke-dasharray:0.3,0.495;stroke-dashoffset:0;stroke-width:0.3;"/>
     </g>
     <g id="line2d_76">
      <g>
       <use style="stroke:#000000;stroke-width:0.6;" x="931.569741" xlink:href="#mbef0c79eea" y="244.078125"/>
      </g>
     </g>
    </g>
    <g id="xtick_39">
     <g id="line2d_77">
      <path clip-path="url(#p6650636d3f)" d="M 1008.972708 244.078125 
L 1008.972708 22.318125 
" style="fill:none;stroke:#808080;stroke-dasharray:0.3,0.495;stroke-dashoffset:0;stroke-width:0.3;"/>
     </g>
     <g id="line2d_78">
      <g>
       <use style="stroke:#000000;stroke-width:0.6;" x="1008.972708" xlink:href="#mbef0c79eea" y="244.078125"/>
      </g>
     </g>
    </g>
    <g id="xtick_40">
     <g id="line2d_79">
      <path clip-path="url(#p6650636d3f)" d="M 1048.276277 244.078125 
L 1048.276277 22.318125 
" style="fill:none;stroke:#808080;stroke-dasharray:0.3,0.495;stroke-dashoffset:0;stroke-width:0.3;"/>
     </g>
     <g id="line2d_80">
      <g>
       <use style="stroke:#000000;stroke-width:0.6;" x="1048.276277" xlink:href="#mbef0c79eea" y="244.078125"/>
      </g>
     </g>
    </g>
    <g id="xtick_41">
     <g id="line2d_81">
      <path clip-path="url(#p6650636d3f)" d="M 1076.162603 244.078125 
L 1076.162603 22.318125 
" style="fill:none;stroke:#808080;stroke-dasharray:0.3,0.495;stroke-dashoffset:0;stroke-width:0.3;"/>
     </g>
     <g id="line2d_82">
      <g>
       <use style="stroke:#000000;stroke-width:0.6;" x="1076.162603" xlink:href="#mbef0c79eea" y="244.078125"/>
      </g>
     </g>
    </g>
    <g id="xtick_42">
     <g id="line2d_83">
      <path clip-path="url(#p6650636d3f)" d="M 1097.792917 244.078125 
L 1097.792917 22.318125 
" style="fill:none;stroke:#808080;stroke-dasharray:0.3,0.495;stroke-dashoffset:0;stroke-width:0.3;"/>
     </g>
     <g id="line2d_84">
      <g>
       <use style="stroke:#000000;stroke-width:0.6;" x="1097.792917" xlink:href="#mbef0c79eea" y="244.078125"/>
      </g>
     </g>
    </g>
    <g id="xtick_43">
     <g id="line2d_85">
      <path clip-path="url(#p6650636d3f)" d="M 1115.466172 244.078125 
L 1115.466172 22.318125 
" style="fill:none;stroke:#808080;stroke-dasharray:0.3,0.495;stroke-dashoffset:0;stroke-width:0.3;"/>
     </g>
     <g id="line2d_86">
      <g>
       <use style="stroke:#000000;stroke-width:0.6;" x="1115.466172" xlink:href="#mbef0c79eea" y="244.078125"/>
      </g>
     </g>
    </g>
    <g id="xtick_44">
     <g id="line2d_87">
      <path clip-path="url(#p6650636d3f)" d="M 1130.408695 244.078125 
L 1130.408695 22.318125 
" style="fill:none;stroke:#808080;stroke-dasharray:0.3,0.495;stroke-dashoffset:0;stroke-width:0.3;"/>
     </g>
     <g id="line2d_88">
      <g>
       <use style="stroke:#000000;stroke-width:0.6;" x="1130.408695" xlink:href="#mbef0c79eea" y="244.078125"/>
      </g>
     </g>
    </g>
    <g id="xtick_45">
     <g id="line2d_89">
      <path clip-path="url(#p6650636d3f)" d="M 1143.352498 244.078125 
L 1143.352498 22.318125 
" style="fill:none;stroke:#808080;stroke-dasharray:0.3,0.495;stroke-dashoffset:0;stroke-width:0.3;"/>
     </g>
     <g id="line2d_90">
      <g>
       <use style="stroke:#000000;stroke-width:0.6;" x="1143.352498" xlink:href="#mbef0c79eea" y="244.078125"/>
      </g>
     </g>
    </g>
    <g id="xtick_46">
     <g id="line2d_91">
      <path clip-path="url(#p6650636d3f)" d="M 1154.769741 244.078125 
L 1154.769741 22.318125 
" style="fill:none;stroke:#808080;stroke-dasharray:0.3,0.495;stroke-dashoffset:0;stroke-width:0.3;"/>
     </g>
     <g id="line2d_92">
      <g>
       <use style="stroke:#000000;stroke-width:0.6;" x="1154.769741" xlink:href="#mbef0c79eea" y="244.078125"/>
      </g>
     </g>
    </g>
    <g id="text_7">
     <!-- Frequency -->
     <g transform="translate(581.153125 272.354687)scale(0.1 -0.1)">
      <defs>
       <path d="M 9.8125 72.90625 
L 51.703125 72.90625 
L 51.703125 64.59375 
L 19.671875 64.59375 
L 19.671875 43.109375 
L 48.578125 43.109375 
L 48.578125 34.8125 
L 19.671875 34.8125 
L 19.671875 0 
L 9.8125 0 
z
" id="DejaVuSans-70"/>
       <path d="M 41.109375 46.296875 
Q 39.59375 47.171875 37.8125 47.578125 
Q 36.03125 48 33.890625 48 
Q 26.265625 48 22.1875 43.046875 
Q 18.109375 38.09375 18.109375 28.8125 
L 18.109375 0 
L 9.078125 0 
L 9.078125 54.6875 
L 18.109375 54.6875 
L 18.109375 46.1875 
Q 20.953125 51.171875 25.484375 53.578125 
Q 30.03125 56 36.53125 56 
Q 37.453125 56 38.578125 55.875 
Q 39.703125 55.765625 41.0625 55.515625 
z
" id="DejaVuSans-114"/>
       <path d="M 56.203125 29.59375 
L 56.203125 25.203125 
L 14.890625 25.203125 
Q 15.484375 15.921875 20.484375 11.0625 
Q 25.484375 6.203125 34.421875 6.203125 
Q 39.59375 6.203125 44.453125 7.46875 
Q 49.3125 8.734375 54.109375 11.28125 
L 54.109375 2.78125 
Q 49.265625 0.734375 44.1875 -0.34375 
Q 39.109375 -1.421875 33.890625 -1.421875 
Q 20.796875 -1.421875 13.15625 6.1875 
Q 5.515625 13.8125 5.515625 26.8125 
Q 5.515625 40.234375 12.765625 48.109375 
Q 20.015625 56 32.328125 56 
Q 43.359375 56 49.78125 48.890625 
Q 56.203125 41.796875 56.203125 29.59375 
z
M 47.21875 32.234375 
Q 47.125 39.59375 43.09375 43.984375 
Q 39.0625 48.390625 32.421875 48.390625 
Q 24.90625 48.390625 20.390625 44.140625 
Q 15.875 39.890625 15.1875 32.171875 
z
" id="DejaVuSans-101"/>
       <path d="M 14.796875 27.296875 
Q 14.796875 17.390625 18.875 11.75 
Q 22.953125 6.109375 30.078125 6.109375 
Q 37.203125 6.109375 41.296875 11.75 
Q 45.40625 17.390625 45.40625 27.296875 
Q 45.40625 37.203125 41.296875 42.84375 
Q 37.203125 48.484375 30.078125 48.484375 
Q 22.953125 48.484375 18.875 42.84375 
Q 14.796875 37.203125 14.796875 27.296875 
z
M 45.40625 8.203125 
Q 42.578125 3.328125 38.25 0.953125 
Q 33.9375 -1.421875 27.875 -1.421875 
Q 17.96875 -1.421875 11.734375 6.484375 
Q 5.515625 14.40625 5.515625 27.296875 
Q 5.515625 40.1875 11.734375 48.09375 
Q 17.96875 56 27.875 56 
Q 33.9375 56 38.25 53.625 
Q 42.578125 51.265625 45.40625 46.390625 
L 45.40625 54.6875 
L 54.390625 54.6875 
L 54.390625 -20.796875 
L 45.40625 -20.796875 
z
" id="DejaVuSans-113"/>
       <path d="M 8.5 21.578125 
L 8.5 54.6875 
L 17.484375 54.6875 
L 17.484375 21.921875 
Q 17.484375 14.15625 20.5 10.265625 
Q 23.53125 6.390625 29.59375 6.390625 
Q 36.859375 6.390625 41.078125 11.03125 
Q 45.3125 15.671875 45.3125 23.6875 
L 45.3125 54.6875 
L 54.296875 54.6875 
L 54.296875 0 
L 45.3125 0 
L 45.3125 8.40625 
Q 42.046875 3.421875 37.71875 1 
Q 33.40625 -1.421875 27.6875 -1.421875 
Q 18.265625 -1.421875 13.375 4.4375 
Q 8.5 10.296875 8.5 21.578125 
z
M 31.109375 56 
z
" id="DejaVuSans-117"/>
       <path d="M 54.890625 33.015625 
L 54.890625 0 
L 45.90625 0 
L 45.90625 32.71875 
Q 45.90625 40.484375 42.875 44.328125 
Q 39.84375 48.1875 33.796875 48.1875 
Q 26.515625 48.1875 22.3125 43.546875 
Q 18.109375 38.921875 18.109375 30.90625 
L 18.109375 0 
L 9.078125 0 
L 9.078125 54.6875 
L 18.109375 54.6875 
L 18.109375 46.1875 
Q 21.34375 51.125 25.703125 53.5625 
Q 30.078125 56 35.796875 56 
Q 45.21875 56 50.046875 50.171875 
Q 54.890625 44.34375 54.890625 33.015625 
z
" id="DejaVuSans-110"/>
       <path d="M 48.78125 52.59375 
L 48.78125 44.1875 
Q 44.96875 46.296875 41.140625 47.34375 
Q 37.3125 48.390625 33.40625 48.390625 
Q 24.65625 48.390625 19.8125 42.84375 
Q 14.984375 37.3125 14.984375 27.296875 
Q 14.984375 17.28125 19.8125 11.734375 
Q 24.65625 6.203125 33.40625 6.203125 
Q 37.3125 6.203125 41.140625 7.25 
Q 44.96875 8.296875 48.78125 10.40625 
L 48.78125 2.09375 
Q 45.015625 0.34375 40.984375 -0.53125 
Q 36.96875 -1.421875 32.421875 -1.421875 
Q 20.0625 -1.421875 12.78125 6.34375 
Q 5.515625 14.109375 5.515625 27.296875 
Q 5.515625 40.671875 12.859375 48.328125 
Q 20.21875 56 33.015625 56 
Q 37.15625 56 41.109375 55.140625 
Q 45.0625 54.296875 48.78125 52.59375 
z
" id="DejaVuSans-99"/>
       <path d="M 32.171875 -5.078125 
Q 28.375 -14.84375 24.75 -17.8125 
Q 21.140625 -20.796875 15.09375 -20.796875 
L 7.90625 -20.796875 
L 7.90625 -13.28125 
L 13.1875 -13.28125 
Q 16.890625 -13.28125 18.9375 -11.515625 
Q 21 -9.765625 23.484375 -3.21875 
L 25.09375 0.875 
L 2.984375 54.6875 
L 12.5 54.6875 
L 29.59375 11.921875 
L 46.6875 54.6875 
L 56.203125 54.6875 
z
" id="DejaVuSans-121"/>
      </defs>
      <use xlink:href="#DejaVuSans-70"/>
      <use x="50.269531" xlink:href="#DejaVuSans-114"/>
      <use x="89.132812" xlink:href="#DejaVuSans-101"/>
      <use x="150.65625" xlink:href="#DejaVuSans-113"/>
      <use x="214.132812" xlink:href="#DejaVuSans-117"/>
      <use x="277.511719" xlink:href="#DejaVuSans-101"/>
      <use x="339.035156" xlink:href="#DejaVuSans-110"/>
      <use x="402.414062" xlink:href="#DejaVuSans-99"/>
      <use x="457.394531" xlink:href="#DejaVuSans-121"/>
     </g>
    </g>
   </g>
   <g id="matplotlib.axis_2">
    <g id="ytick_1">
     <g id="line2d_93">
      <path clip-path="url(#p6650636d3f)" d="M 48.982813 244.078125 
L 1164.982812 244.078125 
" style="fill:none;stroke:#808080;stroke-linecap:square;stroke-width:0.4;"/>
     </g>
     <g id="line2d_94">
      <defs>
       <path d="M 0 0 
L -3.5 0 
" id="mb480c2b19c" style="stroke:#000000;stroke-width:0.8;"/>
      </defs>
      <g>
       <use style="stroke:#000000;stroke-width:0.8;" x="48.982813" xlink:href="#mb480c2b19c" y="244.078125"/>
      </g>
     </g>
     <g id="text_8">
      <!-- −50 -->
      <g transform="translate(20.878125 247.877344)scale(0.1 -0.1)">
       <defs>
        <path d="M 10.59375 35.5 
L 73.1875 35.5 
L 73.1875 27.203125 
L 10.59375 27.203125 
z
" id="DejaVuSans-8722"/>
        <path d="M 10.796875 72.90625 
L 49.515625 72.90625 
L 49.515625 64.59375 
L 19.828125 64.59375 
L 19.828125 46.734375 
Q 21.96875 47.46875 24.109375 47.828125 
Q 26.265625 48.1875 28.421875 48.1875 
Q 40.625 48.1875 47.75 41.5 
Q 54.890625 34.8125 54.890625 23.390625 
Q 54.890625 11.625 47.5625 5.09375 
Q 40.234375 -1.421875 26.90625 -1.421875 
Q 22.3125 -1.421875 17.546875 -0.640625 
Q 12.796875 0.140625 7.71875 1.703125 
L 7.71875 11.625 
Q 12.109375 9.234375 16.796875 8.0625 
Q 21.484375 6.890625 26.703125 6.890625 
Q 35.15625 6.890625 40.078125 11.328125 
Q 45.015625 15.765625 45.015625 23.390625 
Q 45.015625 31 40.078125 35.4375 
Q 35.15625 39.890625 26.703125 39.890625 
Q 22.75 39.890625 18.8125 39.015625 
Q 14.890625 38.140625 10.796875 36.28125 
z
" id="DejaVuSans-53"/>
       </defs>
       <use xlink:href="#DejaVuSans-8722"/>
       <use x="83.789062" xlink:href="#DejaVuSans-53"/>
       <use x="147.412109" xlink:href="#DejaVuSans-48"/>
      </g>
     </g>
    </g>
    <g id="ytick_2">
     <g id="line2d_95">
      <path clip-path="url(#p6650636d3f)" d="M 48.982813 214.510125 
L 1164.982812 214.510125 
" style="fill:none;stroke:#808080;stroke-linecap:square;stroke-width:0.4;"/>
     </g>
     <g id="line2d_96">
      <g>
       <use style="stroke:#000000;stroke-width:0.8;" x="48.982813" xlink:href="#mb480c2b19c" y="214.510125"/>
      </g>
     </g>
     <g id="text_9">
      <!-- −40 -->
      <g transform="translate(20.878125 218.309344)scale(0.1 -0.1)">
       <defs>
        <path d="M 37.796875 64.3125 
L 12.890625 25.390625 
L 37.796875 25.390625 
z
M 35.203125 72.90625 
L 47.609375 72.90625 
L 47.609375 25.390625 
L 58.015625 25.390625 
L 58.015625 17.1875 
L 47.609375 17.1875 
L 47.609375 0 
L 37.796875 0 
L 37.796875 17.1875 
L 4.890625 17.1875 
L 4.890625 26.703125 
z
" id="DejaVuSans-52"/>
       </defs>
       <use xlink:href="#DejaVuSans-8722"/>
       <use x="83.789062" xlink:href="#DejaVuSans-52"/>
       <use x="147.412109" xlink:href="#DejaVuSans-48"/>
      </g>
     </g>
    </g>
    <g id="ytick_3">
     <g id="line2d_97">
      <path clip-path="url(#p6650636d3f)" d="M 48.982813 184.942125 
L 1164.982812 184.942125 
" style="fill:none;stroke:#808080;stroke-linecap:square;stroke-width:0.4;"/>
     </g>
     <g id="line2d_98">
      <g>
       <use style="stroke:#000000;stroke-width:0.8;" x="48.982813" xlink:href="#mb480c2b19c" y="184.942125"/>
      </g>
     </g>
     <g id="text_10">
      <!-- −30 -->
      <g transform="translate(20.878125 188.741344)scale(0.1 -0.1)">
       <defs>
        <path d="M 40.578125 39.3125 
Q 47.65625 37.796875 51.625 33 
Q 55.609375 28.21875 55.609375 21.1875 
Q 55.609375 10.40625 48.1875 4.484375 
Q 40.765625 -1.421875 27.09375 -1.421875 
Q 22.515625 -1.421875 17.65625 -0.515625 
Q 12.796875 0.390625 7.625 2.203125 
L 7.625 11.71875 
Q 11.71875 9.328125 16.59375 8.109375 
Q 21.484375 6.890625 26.8125 6.890625 
Q 36.078125 6.890625 40.9375 10.546875 
Q 45.796875 14.203125 45.796875 21.1875 
Q 45.796875 27.640625 41.28125 31.265625 
Q 36.765625 34.90625 28.71875 34.90625 
L 20.21875 34.90625 
L 20.21875 43.015625 
L 29.109375 43.015625 
Q 36.375 43.015625 40.234375 45.921875 
Q 44.09375 48.828125 44.09375 54.296875 
Q 44.09375 59.90625 40.109375 62.90625 
Q 36.140625 65.921875 28.71875 65.921875 
Q 24.65625 65.921875 20.015625 65.03125 
Q 15.375 64.15625 9.8125 62.3125 
L 9.8125 71.09375 
Q 15.4375 72.65625 20.34375 73.4375 
Q 25.25 74.21875 29.59375 74.21875 
Q 40.828125 74.21875 47.359375 69.109375 
Q 53.90625 64.015625 53.90625 55.328125 
Q 53.90625 49.265625 50.4375 45.09375 
Q 46.96875 40.921875 40.578125 39.3125 
z
" id="DejaVuSans-51"/>
       </defs>
       <use xlink:href="#DejaVuSans-8722"/>
       <use x="83.789062" xlink:href="#DejaVuSans-51"/>
       <use x="147.412109" xlink:href="#DejaVuSans-48"/>
      </g>
     </g>
    </g>
    <g id="ytick_4">
     <g id="line2d_99">
      <path clip-path="url(#p6650636d3f)" d="M 48.982813 155.374125 
L 1164.982812 155.374125 
" style="fill:none;stroke:#808080;stroke-linecap:square;stroke-width:0.4;"/>
     </g>
     <g id="line2d_100">
      <g>
       <use style="stroke:#000000;stroke-width:0.8;" x="48.982813" xlink:href="#mb480c2b19c" y="155.374125"/>
      </g>
     </g>
     <g id="text_11">
      <!-- −20 -->
      <g transform="translate(20.878125 159.173344)scale(0.1 -0.1)">
       <defs>
        <path d="M 19.1875 8.296875 
L 53.609375 8.296875 
L 53.609375 0 
L 7.328125 0 
L 7.328125 8.296875 
Q 12.9375 14.109375 22.625 23.890625 
Q 32.328125 33.6875 34.8125 36.53125 
Q 39.546875 41.84375 41.421875 45.53125 
Q 43.3125 49.21875 43.3125 52.78125 
Q 43.3125 58.59375 39.234375 62.25 
Q 35.15625 65.921875 28.609375 65.921875 
Q 23.96875 65.921875 18.8125 64.3125 
Q 13.671875 62.703125 7.8125 59.421875 
L 7.8125 69.390625 
Q 13.765625 71.78125 18.9375 73 
Q 24.125 74.21875 28.421875 74.21875 
Q 39.75 74.21875 46.484375 68.546875 
Q 53.21875 62.890625 53.21875 53.421875 
Q 53.21875 48.921875 51.53125 44.890625 
Q 49.859375 40.875 45.40625 35.40625 
Q 44.1875 33.984375 37.640625 27.21875 
Q 31.109375 20.453125 19.1875 8.296875 
z
" id="DejaVuSans-50"/>
       </defs>
       <use xlink:href="#DejaVuSans-8722"/>
       <use x="83.789062" xlink:href="#DejaVuSans-50"/>
       <use x="147.412109" xlink:href="#DejaVuSans-48"/>
      </g>
     </g>
    </g>
    <g id="ytick_5">
     <g id="line2d_101">
      <path clip-path="url(#p6650636d3f)" d="M 48.982813 125.806125 
L 1164.982812 125.806125 
" style="fill:none;stroke:#808080;stroke-linecap:square;stroke-width:0.4;"/>
     </g>
     <g id="line2d_102">
      <g>
       <use style="stroke:#000000;stroke-width:0.8;" x="48.982813" xlink:href="#mb480c2b19c" y="125.806125"/>
      </g>
     </g>
     <g id="text_12">
      <!-- −10 -->
      <g transform="translate(20.878125 129.605344)scale(0.1 -0.1)">
       <use xlink:href="#DejaVuSans-8722"/>
       <use x="83.789062" xlink:href="#DejaVuSans-49"/>
       <use x="147.412109" xlink:href="#DejaVuSans-48"/>
      </g>
     </g>
    </g>
    <g id="ytick_6">
     <g id="line2d_103">
      <path clip-path="url(#p6650636d3f)" d="M 48.982813 96.238125 
L 1164.982812 96.238125 
" style="fill:none;stroke:#808080;stroke-linecap:square;stroke-width:0.4;"/>
     </g>
     <g id="line2d_104">
      <g>
       <use style="stroke:#000000;stroke-width:0.8;" x="48.982813" xlink:href="#mb480c2b19c" y="96.238125"/>
      </g>
     </g>
     <g id="text_13">
      <!-- 0 -->
      <g transform="translate(35.620313 100.037344)scale(0.1 -0.1)">
       <use xlink:href="#DejaVuSans-48"/>
      </g>
     </g>
    </g>
    <g id="ytick_7">
     <g id="line2d_105">
      <path clip-path="url(#p6650636d3f)" d="M 48.982813 66.670125 
L 1164.982812 66.670125 
" style="fill:none;stroke:#808080;stroke-linecap:square;stroke-width:0.4;"/>
     </g>
     <g id="line2d_106">
      <g>
       <use style="stroke:#000000;stroke-width:0.8;" x="48.982813" xlink:href="#mb480c2b19c" y="66.670125"/>
      </g>
     </g>
     <g id="text_14">
      <!-- 10 -->
      <g transform="translate(29.257813 70.469344)scale(0.1 -0.1)">
       <use xlink:href="#DejaVuSans-49"/>
       <use x="63.623047" xlink:href="#DejaVuSans-48"/>
      </g>
     </g>
    </g>
    <g id="ytick_8">
     <g id="line2d_107">
      <path clip-path="url(#p6650636d3f)" d="M 48.982813 37.102125 
L 1164.982812 37.102125 
" style="fill:none;stroke:#808080;stroke-linecap:square;stroke-width:0.4;"/>
     </g>
     <g id="line2d_108">
      <g>
       <use style="stroke:#000000;stroke-width:0.8;" x="48.982813" xlink:href="#mb480c2b19c" y="37.102125"/>
      </g>
     </g>
     <g id="text_15">
      <!-- 20 -->
      <g transform="translate(29.257813 40.901344)scale(0.1 -0.1)">
       <use xlink:href="#DejaVuSans-50"/>
       <use x="63.623047" xlink:href="#DejaVuSans-48"/>
      </g>
     </g>
    </g>
    <g id="ytick_9">
     <g id="line2d_109">
      <defs>
       <path d="M 0 0 
L -2 0 
" id="m0d3e8e1b13" style="stroke:#000000;stroke-width:0.6;"/>
      </defs>
      <g>
       <use style="stroke:#000000;stroke-width:0.6;" x="48.982813" xlink:href="#m0d3e8e1b13" y="238.164525"/>
      </g>
     </g>
    </g>
    <g id="ytick_10">
     <g id="line2d_110">
      <g>
       <use style="stroke:#000000;stroke-width:0.6;" x="48.982813" xlink:href="#m0d3e8e1b13" y="232.250925"/>
      </g>
     </g>
    </g>
    <g id="ytick_11">
     <g id="line2d_111">
      <g>
       <use style="stroke:#000000;stroke-width:0.6;" x="48.982813" xlink:href="#m0d3e8e1b13" y="226.337325"/>
      </g>
     </g>
    </g>
    <g id="ytick_12">
     <g id="line2d_112">
      <g>
       <use style="stroke:#000000;stroke-width:0.6;" x="48.982813" xlink:href="#m0d3e8e1b13" y="220.423725"/>
      </g>
     </g>
    </g>
    <g id="ytick_13">
     <g id="line2d_113">
      <g>
       <use style="stroke:#000000;stroke-width:0.6;" x="48.982813" xlink:href="#m0d3e8e1b13" y="208.596525"/>
      </g>
     </g>
    </g>
    <g id="ytick_14">
     <g id="line2d_114">
      <g>
       <use style="stroke:#000000;stroke-width:0.6;" x="48.982813" xlink:href="#m0d3e8e1b13" y="202.682925"/>
      </g>
     </g>
    </g>
    <g id="ytick_15">
     <g id="line2d_115">
      <g>
       <use style="stroke:#000000;stroke-width:0.6;" x="48.982813" xlink:href="#m0d3e8e1b13" y="196.769325"/>
      </g>
     </g>
    </g>
    <g id="ytick_16">
     <g id="line2d_116">
      <g>
       <use style="stroke:#000000;stroke-width:0.6;" x="48.982813" xlink:href="#m0d3e8e1b13" y="190.855725"/>
      </g>
     </g>
    </g>
    <g id="ytick_17">
     <g id="line2d_117">
      <g>
       <use style="stroke:#000000;stroke-width:0.6;" x="48.982813" xlink:href="#m0d3e8e1b13" y="179.028525"/>
      </g>
     </g>
    </g>
    <g id="ytick_18">
     <g id="line2d_118">
      <g>
       <use style="stroke:#000000;stroke-width:0.6;" x="48.982813" xlink:href="#m0d3e8e1b13" y="173.114925"/>
      </g>
     </g>
    </g>
    <g id="ytick_19">
     <g id="line2d_119">
      <g>
       <use style="stroke:#000000;stroke-width:0.6;" x="48.982813" xlink:href="#m0d3e8e1b13" y="167.201325"/>
      </g>
     </g>
    </g>
    <g id="ytick_20">
     <g id="line2d_120">
      <g>
       <use style="stroke:#000000;stroke-width:0.6;" x="48.982813" xlink:href="#m0d3e8e1b13" y="161.287725"/>
      </g>
     </g>
    </g>
    <g id="ytick_21">
     <g id="line2d_121">
      <g>
       <use style="stroke:#000000;stroke-width:0.6;" x="48.982813" xlink:href="#m0d3e8e1b13" y="149.460525"/>
      </g>
     </g>
    </g>
    <g id="ytick_22">
     <g id="line2d_122">
      <g>
       <use style="stroke:#000000;stroke-width:0.6;" x="48.982813" xlink:href="#m0d3e8e1b13" y="143.546925"/>
      </g>
     </g>
    </g>
    <g id="ytick_23">
     <g id="line2d_123">
      <g>
       <use style="stroke:#000000;stroke-width:0.6;" x="48.982813" xlink:href="#m0d3e8e1b13" y="137.633325"/>
      </g>
     </g>
    </g>
    <g id="ytick_24">
     <g id="line2d_124">
      <g>
       <use style="stroke:#000000;stroke-width:0.6;" x="48.982813" xlink:href="#m0d3e8e1b13" y="131.719725"/>
      </g>
     </g>
    </g>
    <g id="ytick_25">
     <g id="line2d_125">
      <g>
       <use style="stroke:#000000;stroke-width:0.6;" x="48.982813" xlink:href="#m0d3e8e1b13" y="119.892525"/>
      </g>
     </g>
    </g>
    <g id="ytick_26">
     <g id="line2d_126">
      <g>
       <use style="stroke:#000000;stroke-width:0.6;" x="48.982813" xlink:href="#m0d3e8e1b13" y="113.978925"/>
      </g>
     </g>
    </g>
    <g id="ytick_27">
     <g id="line2d_127">
      <g>
       <use style="stroke:#000000;stroke-width:0.6;" x="48.982813" xlink:href="#m0d3e8e1b13" y="108.065325"/>
      </g>
     </g>
    </g>
    <g id="ytick_28">
     <g id="line2d_128">
      <g>
       <use style="stroke:#000000;stroke-width:0.6;" x="48.982813" xlink:href="#m0d3e8e1b13" y="102.151725"/>
      </g>
     </g>
    </g>
    <g id="ytick_29">
     <g id="line2d_129">
      <g>
       <use style="stroke:#000000;stroke-width:0.6;" x="48.982813" xlink:href="#m0d3e8e1b13" y="90.324525"/>
      </g>
     </g>
    </g>
    <g id="ytick_30">
     <g id="line2d_130">
      <g>
       <use style="stroke:#000000;stroke-width:0.6;" x="48.982813" xlink:href="#m0d3e8e1b13" y="84.410925"/>
      </g>
     </g>
    </g>
    <g id="ytick_31">
     <g id="line2d_131">
      <g>
       <use style="stroke:#000000;stroke-width:0.6;" x="48.982813" xlink:href="#m0d3e8e1b13" y="78.497325"/>
      </g>
     </g>
    </g>
    <g id="ytick_32">
     <g id="line2d_132">
      <g>
       <use style="stroke:#000000;stroke-width:0.6;" x="48.982813" xlink:href="#m0d3e8e1b13" y="72.583725"/>
      </g>
     </g>
    </g>
    <g id="ytick_33">
     <g id="line2d_133">
      <g>
       <use style="stroke:#000000;stroke-width:0.6;" x="48.982813" xlink:href="#m0d3e8e1b13" y="60.756525"/>
      </g>
     </g>
    </g>
    <g id="ytick_34">
     <g id="line2d_134">
      <g>
       <use style="stroke:#000000;stroke-width:0.6;" x="48.982813" xlink:href="#m0d3e8e1b13" y="54.842925"/>
      </g>
     </g>
    </g>
    <g id="ytick_35">
     <g id="line2d_135">
      <g>
       <use style="stroke:#000000;stroke-width:0.6;" x="48.982813" xlink:href="#m0d3e8e1b13" y="48.929325"/>
      </g>
     </g>
    </g>
    <g id="ytick_36">
     <g id="line2d_136">
      <g>
       <use style="stroke:#000000;stroke-width:0.6;" x="48.982813" xlink:href="#m0d3e8e1b13" y="43.015725"/>
      </g>
     </g>
    </g>
    <g id="ytick_37">
     <g id="line2d_137">
      <g>
       <use style="stroke:#000000;stroke-width:0.6;" x="48.982813" xlink:href="#m0d3e8e1b13" y="31.188525"/>
      </g>
     </g>
    </g>
    <g id="ytick_38">
     <g id="line2d_138">
      <g>
       <use style="stroke:#000000;stroke-width:0.6;" x="48.982813" xlink:href="#m0d3e8e1b13" y="25.274925"/>
      </g>
     </g>
    </g>
    <g id="text_16">
     <!-- Transfer Impedance [dBμΩ] -->
     <g transform="translate(14.798438 201.815312)rotate(-90)scale(0.1 -0.1)">
      <defs>
       <path d="M -0.296875 72.90625 
L 61.375 72.90625 
L 61.375 64.59375 
L 35.5 64.59375 
L 35.5 0 
L 25.59375 0 
L 25.59375 64.59375 
L -0.296875 64.59375 
z
" id="DejaVuSans-84"/>
       <path d="M 34.28125 27.484375 
Q 23.390625 27.484375 19.1875 25 
Q 14.984375 22.515625 14.984375 16.5 
Q 14.984375 11.71875 18.140625 8.90625 
Q 21.296875 6.109375 26.703125 6.109375 
Q 34.1875 6.109375 38.703125 11.40625 
Q 43.21875 16.703125 43.21875 25.484375 
L 43.21875 27.484375 
z
M 52.203125 31.203125 
L 52.203125 0 
L 43.21875 0 
L 43.21875 8.296875 
Q 40.140625 3.328125 35.546875 0.953125 
Q 30.953125 -1.421875 24.3125 -1.421875 
Q 15.921875 -1.421875 10.953125 3.296875 
Q 6 8.015625 6 15.921875 
Q 6 25.140625 12.171875 29.828125 
Q 18.359375 34.515625 30.609375 34.515625 
L 43.21875 34.515625 
L 43.21875 35.40625 
Q 43.21875 41.609375 39.140625 45 
Q 35.0625 48.390625 27.6875 48.390625 
Q 23 48.390625 18.546875 47.265625 
Q 14.109375 46.140625 10.015625 43.890625 
L 10.015625 52.203125 
Q 14.9375 54.109375 19.578125 55.046875 
Q 24.21875 56 28.609375 56 
Q 40.484375 56 46.34375 49.84375 
Q 52.203125 43.703125 52.203125 31.203125 
z
" id="DejaVuSans-97"/>
       <path d="M 44.28125 53.078125 
L 44.28125 44.578125 
Q 40.484375 46.53125 36.375 47.5 
Q 32.28125 48.484375 27.875 48.484375 
Q 21.1875 48.484375 17.84375 46.4375 
Q 14.5 44.390625 14.5 40.28125 
Q 14.5 37.15625 16.890625 35.375 
Q 19.28125 33.59375 26.515625 31.984375 
L 29.59375 31.296875 
Q 39.15625 29.25 43.1875 25.515625 
Q 47.21875 21.78125 47.21875 15.09375 
Q 47.21875 7.46875 41.1875 3.015625 
Q 35.15625 -1.421875 24.609375 -1.421875 
Q 20.21875 -1.421875 15.453125 -0.5625 
Q 10.6875 0.296875 5.421875 2 
L 5.421875 11.28125 
Q 10.40625 8.6875 15.234375 7.390625 
Q 20.0625 6.109375 24.8125 6.109375 
Q 31.15625 6.109375 34.5625 8.28125 
Q 37.984375 10.453125 37.984375 14.40625 
Q 37.984375 18.0625 35.515625 20.015625 
Q 33.0625 21.96875 24.703125 23.78125 
L 21.578125 24.515625 
Q 13.234375 26.265625 9.515625 29.90625 
Q 5.8125 33.546875 5.8125 39.890625 
Q 5.8125 47.609375 11.28125 51.796875 
Q 16.75 56 26.8125 56 
Q 31.78125 56 36.171875 55.265625 
Q 40.578125 54.546875 44.28125 53.078125 
z
" id="DejaVuSans-115"/>
       <path d="M 37.109375 75.984375 
L 37.109375 68.5 
L 28.515625 68.5 
Q 23.6875 68.5 21.796875 66.546875 
Q 19.921875 64.59375 19.921875 59.515625 
L 19.921875 54.6875 
L 34.71875 54.6875 
L 34.71875 47.703125 
L 19.921875 47.703125 
L 19.921875 0 
L 10.890625 0 
L 10.890625 47.703125 
L 2.296875 47.703125 
L 2.296875 54.6875 
L 10.890625 54.6875 
L 10.890625 58.5 
Q 10.890625 67.625 15.140625 71.796875 
Q 19.390625 75.984375 28.609375 75.984375 
z
" id="DejaVuSans-102"/>
       <path id="DejaVuSans-32"/>
       <path d="M 9.8125 72.90625 
L 19.671875 72.90625 
L 19.671875 0 
L 9.8125 0 
z
" id="DejaVuSans-73"/>
       <path d="M 52 44.1875 
Q 55.375 50.25 60.0625 53.125 
Q 64.75 56 71.09375 56 
Q 79.640625 56 84.28125 50.015625 
Q 88.921875 44.046875 88.921875 33.015625 
L 88.921875 0 
L 79.890625 0 
L 79.890625 32.71875 
Q 79.890625 40.578125 77.09375 44.375 
Q 74.3125 48.1875 68.609375 48.1875 
Q 61.625 48.1875 57.5625 43.546875 
Q 53.515625 38.921875 53.515625 30.90625 
L 53.515625 0 
L 44.484375 0 
L 44.484375 32.71875 
Q 44.484375 40.625 41.703125 44.40625 
Q 38.921875 48.1875 33.109375 48.1875 
Q 26.21875 48.1875 22.15625 43.53125 
Q 18.109375 38.875 18.109375 30.90625 
L 18.109375 0 
L 9.078125 0 
L 9.078125 54.6875 
L 18.109375 54.6875 
L 18.109375 46.1875 
Q 21.1875 51.21875 25.484375 53.609375 
Q 29.78125 56 35.6875 56 
Q 41.65625 56 45.828125 52.96875 
Q 50 49.953125 52 44.1875 
z
" id="DejaVuSans-109"/>
       <path d="M 18.109375 8.203125 
L 18.109375 -20.796875 
L 9.078125 -20.796875 
L 9.078125 54.6875 
L 18.109375 54.6875 
L 18.109375 46.390625 
Q 20.953125 51.265625 25.265625 53.625 
Q 29.59375 56 35.59375 56 
Q 45.5625 56 51.78125 48.09375 
Q 58.015625 40.1875 58.015625 27.296875 
Q 58.015625 14.40625 51.78125 6.484375 
Q 45.5625 -1.421875 35.59375 -1.421875 
Q 29.59375 -1.421875 25.265625 0.953125 
Q 20.953125 3.328125 18.109375 8.203125 
z
M 48.6875 27.296875 
Q 48.6875 37.203125 44.609375 42.84375 
Q 40.53125 48.484375 33.40625 48.484375 
Q 26.265625 48.484375 22.1875 42.84375 
Q 18.109375 37.203125 18.109375 27.296875 
Q 18.109375 17.390625 22.1875 11.75 
Q 26.265625 6.109375 33.40625 6.109375 
Q 40.53125 6.109375 44.609375 11.75 
Q 48.6875 17.390625 48.6875 27.296875 
z
" id="DejaVuSans-112"/>
       <path d="M 45.40625 46.390625 
L 45.40625 75.984375 
L 54.390625 75.984375 
L 54.390625 0 
L 45.40625 0 
L 45.40625 8.203125 
Q 42.578125 3.328125 38.25 0.953125 
Q 33.9375 -1.421875 27.875 -1.421875 
Q 17.96875 -1.421875 11.734375 6.484375 
Q 5.515625 14.40625 5.515625 27.296875 
Q 5.515625 40.1875 11.734375 48.09375 
Q 17.96875 56 27.875 56 
Q 33.9375 56 38.25 53.625 
Q 42.578125 51.265625 45.40625 46.390625 
z
M 14.796875 27.296875 
Q 14.796875 17.390625 18.875 11.75 
Q 22.953125 6.109375 30.078125 6.109375 
Q 37.203125 6.109375 41.296875 11.75 
Q 45.40625 17.390625 45.40625 27.296875 
Q 45.40625 37.203125 41.296875 42.84375 
Q 37.203125 48.484375 30.078125 48.484375 
Q 22.953125 48.484375 18.875 42.84375 
Q 14.796875 37.203125 14.796875 27.296875 
z
" id="DejaVuSans-100"/>
       <path d="M 8.59375 75.984375 
L 29.296875 75.984375 
L 29.296875 69 
L 17.578125 69 
L 17.578125 -6.203125 
L 29.296875 -6.203125 
L 29.296875 -13.1875 
L 8.59375 -13.1875 
z
" id="DejaVuSans-91"/>
       <path d="M 19.671875 34.8125 
L 19.671875 8.109375 
L 35.5 8.109375 
Q 43.453125 8.109375 47.28125 11.40625 
Q 51.125 14.703125 51.125 21.484375 
Q 51.125 28.328125 47.28125 31.5625 
Q 43.453125 34.8125 35.5 34.8125 
z
M 19.671875 64.796875 
L 19.671875 42.828125 
L 34.28125 42.828125 
Q 41.5 42.828125 45.03125 45.53125 
Q 48.578125 48.25 48.578125 53.8125 
Q 48.578125 59.328125 45.03125 62.0625 
Q 41.5 64.796875 34.28125 64.796875 
z
M 9.8125 72.90625 
L 35.015625 72.90625 
Q 46.296875 72.90625 52.390625 68.21875 
Q 58.5 63.53125 58.5 54.890625 
Q 58.5 48.1875 55.375 44.234375 
Q 52.25 40.28125 46.1875 39.3125 
Q 53.46875 37.75 57.5 32.78125 
Q 61.53125 27.828125 61.53125 20.40625 
Q 61.53125 10.640625 54.890625 5.3125 
Q 48.25 0 35.984375 0 
L 9.8125 0 
z
" id="DejaVuSans-66"/>
       <path d="M 8.5 -20.796875 
L 8.5 54.6875 
L 17.484375 54.6875 
L 17.484375 20.703125 
Q 17.484375 13.625 20.84375 10 
Q 24.21875 6.390625 30.8125 6.390625 
Q 38.03125 6.390625 41.671875 10.484375 
Q 45.3125 14.59375 45.3125 22.796875 
L 45.3125 54.6875 
L 54.296875 54.6875 
L 54.296875 12.59375 
Q 54.296875 9.671875 55.140625 8.28125 
Q 56 6.890625 57.8125 6.890625 
Q 58.25 6.890625 59.03125 7.15625 
Q 59.8125 7.421875 61.1875 8.015625 
L 61.1875 0.78125 
Q 59.1875 -0.34375 57.390625 -0.875 
Q 55.609375 -1.421875 53.90625 -1.421875 
Q 50.53125 -1.421875 48.53125 0.484375 
Q 46.53125 2.390625 45.796875 6.296875 
Q 43.359375 2.4375 39.8125 0.5 
Q 36.28125 -1.421875 31.5 -1.421875 
Q 26.515625 -1.421875 23.015625 0.484375 
Q 19.53125 2.390625 17.484375 6.203125 
L 17.484375 -20.796875 
z
" id="DejaVuSans-956"/>
       <path d="M 72.609375 8.6875 
L 72.609375 0 
L 43.3125 0 
L 43.3125 8.6875 
Q 51.953125 13.421875 56.78125 21.53125 
Q 61.625 29.640625 61.625 39.5 
Q 61.625 51.21875 55.171875 58.296875 
Q 48.734375 65.375 38.1875 65.375 
Q 27.640625 65.375 21.171875 58.265625 
Q 14.703125 51.171875 14.703125 39.5 
Q 14.703125 29.640625 19.53125 21.53125 
Q 24.421875 13.421875 33.109375 8.6875 
L 33.109375 0 
L 3.8125 0 
L 3.8125 8.6875 
L 19.390625 8.6875 
Q 11.671875 15.484375 8.109375 22.75 
Q 4.59375 30.03125 4.59375 39.015625 
Q 4.59375 54.546875 13.96875 64.15625 
Q 23.296875 73.78125 38.1875 73.78125 
Q 52.984375 73.78125 62.40625 64.15625 
Q 71.78125 54.59375 71.78125 39.5 
Q 71.78125 30.03125 68.3125 22.796875 
Q 64.84375 15.578125 56.984375 8.6875 
z
" id="DejaVuSans-937"/>
       <path d="M 30.421875 75.984375 
L 30.421875 -13.1875 
L 9.71875 -13.1875 
L 9.71875 -6.203125 
L 21.390625 -6.203125 
L 21.390625 69 
L 9.71875 69 
L 9.71875 75.984375 
z
" id="DejaVuSans-93"/>
      </defs>
      <use xlink:href="#DejaVuSans-84"/>
      <use x="46.333984" xlink:href="#DejaVuSans-114"/>
      <use x="87.447266" xlink:href="#DejaVuSans-97"/>
      <use x="148.726562" xlink:href="#DejaVuSans-110"/>
      <use x="212.105469" xlink:href="#DejaVuSans-115"/>
      <use x="264.205078" xlink:href="#DejaVuSans-102"/>
      <use x="299.410156" xlink:href="#DejaVuSans-101"/>
      <use x="360.933594" xlink:href="#DejaVuSans-114"/>
      <use x="402.046875" xlink:href="#DejaVuSans-32"/>
      <use x="433.833984" xlink:href="#DejaVuSans-73"/>
      <use x="463.326172" xlink:href="#DejaVuSans-109"/>
      <use x="560.738281" xlink:href="#DejaVuSans-112"/>
      <use x="624.214844" xlink:href="#DejaVuSans-101"/>
      <use x="685.738281" xlink:href="#DejaVuSans-100"/>
      <use x="749.214844" xlink:href="#DejaVuSans-97"/>
      <use x="810.494141" xlink:href="#DejaVuSans-110"/>
      <use x="873.873047" xlink:href="#DejaVuSans-99"/>
      <use x="928.853516" xlink:href="#DejaVuSans-101"/>
      <use x="990.376953" xlink:href="#DejaVuSans-32"/>
      <use x="1022.164062" xlink:href="#DejaVuSans-91"/>
      <use x="1061.177734" xlink:href="#DejaVuSans-100"/>
      <use x="1124.654297" xlink:href="#DejaVuSans-66"/>
      <use x="1193.257812" xlink:href="#DejaVuSans-956"/>
      <use x="1256.880859" xlink:href="#DejaVuSans-937"/>
      <use x="1333.296875" xlink:href="#DejaVuSans-93"/>
     </g>
    </g>
   </g>
   <g id="line2d_139">
    <path clip-path="url(#p6650636d3f)" d="M 116.172708 216.579885 
L 137.802441 208.892436 
L 155.475307 201.204986 
L 170.417554 193.517537 
L 183.361149 185.830088 
L 194.77823 178.142638 
L 204.991173 170.455189 
L 214.229914 166.729019 
L 222.664233 163.003563 
L 230.42306 159.278107 
L 237.606618 155.552651 
L 244.294354 151.827194 
L 250.550317 148.101738 
L 256.426893 144.376282 
L 261.967479 140.650826 
L 267.208425 136.92537 
L 272.180486 133.199913 
L 281.41928 128.705002 
L 289.853643 124.210801 
L 297.612508 119.7166 
L 304.796097 115.222399 
L 311.483861 110.728198 
L 317.739848 107.026086 
L 323.616446 103.324284 
L 329.157051 99.622481 
L 334.398014 95.920679 
L 339.37009 92.218876 
L 348.608911 89.266876 
L 357.043296 86.316078 
L 364.802179 83.36528 
L 371.985785 80.414482 
L 380.275819 76.923752 
L 387.912392 74.225753 
L 396.346784 70.988154 
L 404.105674 67.750555 
L 406.55984 66.671355 
L 416.89399 64.142777 
L 426.231788 61.614789 
L 429.154655 60.890054 
L 440.037221 58.938625 
L 447.465619 57.593115 
L 460.110996 55.833872 
L 461.495798 55.685795 
L 477.318205 54.754293 
L 489.382103 54.547245 
L 526.249109 54.658113 
L 567.759776 54.940444 
L 599.419219 55.66336 
L 626.431687 56.497152 
L 650.12161 57.446257 
L 658.760407 57.94768 
L 676.747581 59.183585 
L 693.181677 60.531845 
L 708.366839 61.998078 
L 724.593281 63.802873 
L 737.895142 65.468684 
L 750.361237 67.251581 
L 762.088373 69.151563 
L 773.157779 71.168632 
L 783.63821 73.302786 
L 786.205029 73.967337 
L 793.25242 77.371694 
L 800.115034 80.933349 
L 806.777742 84.641065 
L 813.267612 88.506078 
L 819.606845 92.539623 
L 825.877811 96.532732 
L 833.663824 99.524924 
L 841.185867 102.653125 
L 848.458378 105.917334 
L 853.117087 107.971005 
L 859.472848 103.95727 
L 865.682114 99.773523 
L 871.757307 95.412374 
L 875.112049 93.063802 
L 882.471122 89.851602 
L 889.61005 86.493576 
L 896.53775 82.989725 
L 903.270362 79.335999 
L 909.828753 75.524295 
L 916.224079 71.550564 
L 922.472203 67.406703 
L 928.580968 63.088663 
L 934.562724 58.588342 
L 940.432893 53.893587 
L 941.934876 52.796375 
L 953.63988 54.696801 
L 964.689038 56.714018 
L 975.154334 58.848763 
L 985.099453 61.102516 
L 994.580644 63.477495 
L 1003.639922 65.974437 
L 1009.255336 67.710843 
L 1015.889955 71.450166 
L 1022.357272 75.350009 
L 1028.669466 79.415635 
L 1034.839038 83.653623 
L 1040.878498 88.071866 
L 1046.798494 92.678259 
L 1048.367027 93.796248 
L 1054.09219 88.826489 
L 1059.7222 83.644557 
L 1065.265695 78.239571 
L 1070.72863 72.602009 
L 1076.118489 66.719632 
L 1076.284418 66.69987 
L 1085.657056 69.104267 
L 1094.621366 71.63196 
L 1097.792917 72.583725 
L 1097.792917 72.583725 
" style="fill:none;stroke:#00429d;stroke-linecap:square;"/>
   </g>
   <g id="patch_3">
    <path d="M 48.982813 244.078125 
L 48.982813 22.318125 
" style="fill:none;stroke:#000000;stroke-linecap:square;stroke-linejoin:miter;stroke-width:0.8;"/>
   </g>
   <g id="patch_4">
    <path d="M 1164.982812 244.078125 
L 1164.982812 22.318125 
" style="fill:none;stroke:#000000;stroke-linecap:square;stroke-linejoin:miter;stroke-width:0.8;"/>
   </g>
   <g id="patch_5">
    <path d="M 48.982813 244.078125 
L 1164.982813 244.078125 
" style="fill:none;stroke:#000000;stroke-linecap:square;stroke-linejoin:miter;stroke-width:0.8;"/>
   </g>
   <g id="patch_6">
    <path d="M 48.982813 22.318125 
L 1164.982813 22.318125 
" style="fill:none;stroke:#000000;stroke-linecap:square;stroke-linejoin:miter;stroke-width:0.8;"/>
   </g>
   <g id="text_17">
    <!-- DIY Current Probe Transfer Impedance -->
    <g transform="translate(492.235625 16.318125)scale(0.12 -0.12)">
     <defs>
      <path d="M 19.671875 64.796875 
L 19.671875 8.109375 
L 31.59375 8.109375 
Q 46.6875 8.109375 53.6875 14.9375 
Q 60.6875 21.78125 60.6875 36.53125 
Q 60.6875 51.171875 53.6875 57.984375 
Q 46.6875 64.796875 31.59375 64.796875 
z
M 9.8125 72.90625 
L 30.078125 72.90625 
Q 51.265625 72.90625 61.171875 64.09375 
Q 71.09375 55.28125 71.09375 36.53125 
Q 71.09375 17.671875 61.125 8.828125 
Q 51.171875 0 30.078125 0 
L 9.8125 0 
z
" id="DejaVuSans-68"/>
      <path d="M -0.203125 72.90625 
L 10.40625 72.90625 
L 30.609375 42.921875 
L 50.6875 72.90625 
L 61.28125 72.90625 
L 35.5 34.71875 
L 35.5 0 
L 25.59375 0 
L 25.59375 34.71875 
z
" id="DejaVuSans-89"/>
      <path d="M 64.40625 67.28125 
L 64.40625 56.890625 
Q 59.421875 61.53125 53.78125 63.8125 
Q 48.140625 66.109375 41.796875 66.109375 
Q 29.296875 66.109375 22.65625 58.46875 
Q 16.015625 50.828125 16.015625 36.375 
Q 16.015625 21.96875 22.65625 14.328125 
Q 29.296875 6.6875 41.796875 6.6875 
Q 48.140625 6.6875 53.78125 8.984375 
Q 59.421875 11.28125 64.40625 15.921875 
L 64.40625 5.609375 
Q 59.234375 2.09375 53.4375 0.328125 
Q 47.65625 -1.421875 41.21875 -1.421875 
Q 24.65625 -1.421875 15.125 8.703125 
Q 5.609375 18.84375 5.609375 36.375 
Q 5.609375 53.953125 15.125 64.078125 
Q 24.65625 74.21875 41.21875 74.21875 
Q 47.75 74.21875 53.53125 72.484375 
Q 59.328125 70.75 64.40625 67.28125 
z
" id="DejaVuSans-67"/>
      <path d="M 18.3125 70.21875 
L 18.3125 54.6875 
L 36.8125 54.6875 
L 36.8125 47.703125 
L 18.3125 47.703125 
L 18.3125 18.015625 
Q 18.3125 11.328125 20.140625 9.421875 
Q 21.96875 7.515625 27.59375 7.515625 
L 36.8125 7.515625 
L 36.8125 0 
L 27.59375 0 
Q 17.1875 0 13.234375 3.875 
Q 9.28125 7.765625 9.28125 18.015625 
L 9.28125 47.703125 
L 2.6875 47.703125 
L 2.6875 54.6875 
L 9.28125 54.6875 
L 9.28125 70.21875 
z
" id="DejaVuSans-116"/>
      <path d="M 19.671875 64.796875 
L 19.671875 37.40625 
L 32.078125 37.40625 
Q 38.96875 37.40625 42.71875 40.96875 
Q 46.484375 44.53125 46.484375 51.125 
Q 46.484375 57.671875 42.71875 61.234375 
Q 38.96875 64.796875 32.078125 64.796875 
z
M 9.8125 72.90625 
L 32.078125 72.90625 
Q 44.34375 72.90625 50.609375 67.359375 
Q 56.890625 61.8125 56.890625 51.125 
Q 56.890625 40.328125 50.609375 34.8125 
Q 44.34375 29.296875 32.078125 29.296875 
L 19.671875 29.296875 
L 19.671875 0 
L 9.8125 0 
z
" id="DejaVuSans-80"/>
      <path d="M 30.609375 48.390625 
Q 23.390625 48.390625 19.1875 42.75 
Q 14.984375 37.109375 14.984375 27.296875 
Q 14.984375 17.484375 19.15625 11.84375 
Q 23.34375 6.203125 30.609375 6.203125 
Q 37.796875 6.203125 41.984375 11.859375 
Q 46.1875 17.53125 46.1875 27.296875 
Q 46.1875 37.015625 41.984375 42.703125 
Q 37.796875 48.390625 30.609375 48.390625 
z
M 30.609375 56 
Q 42.328125 56 49.015625 48.375 
Q 55.71875 40.765625 55.71875 27.296875 
Q 55.71875 13.875 49.015625 6.21875 
Q 42.328125 -1.421875 30.609375 -1.421875 
Q 18.84375 -1.421875 12.171875 6.21875 
Q 5.515625 13.875 5.515625 27.296875 
Q 5.515625 40.765625 12.171875 48.375 
Q 18.84375 56 30.609375 56 
z
" id="DejaVuSans-111"/>
      <path d="M 48.6875 27.296875 
Q 48.6875 37.203125 44.609375 42.84375 
Q 40.53125 48.484375 33.40625 48.484375 
Q 26.265625 48.484375 22.1875 42.84375 
Q 18.109375 37.203125 18.109375 27.296875 
Q 18.109375 17.390625 22.1875 11.75 
Q 26.265625 6.109375 33.40625 6.109375 
Q 40.53125 6.109375 44.609375 11.75 
Q 48.6875 17.390625 48.6875 27.296875 
z
M 18.109375 46.390625 
Q 20.953125 51.265625 25.265625 53.625 
Q 29.59375 56 35.59375 56 
Q 45.5625 56 51.78125 48.09375 
Q 58.015625 40.1875 58.015625 27.296875 
Q 58.015625 14.40625 51.78125 6.484375 
Q 45.5625 -1.421875 35.59375 -1.421875 
Q 29.59375 -1.421875 25.265625 0.953125 
Q 20.953125 3.328125 18.109375 8.203125 
L 18.109375 0 
L 9.078125 0 
L 9.078125 75.984375 
L 18.109375 75.984375 
z
" id="DejaVuSans-98"/>
     </defs>
     <use xlink:href="#DejaVuSans-68"/>
     <use x="77.001953" xlink:href="#DejaVuSans-73"/>
     <use x="106.494141" xlink:href="#DejaVuSans-89"/>
     <use x="167.578125" xlink:href="#DejaVuSans-32"/>
     <use x="199.365234" xlink:href="#DejaVuSans-67"/>
     <use x="269.189453" xlink:href="#DejaVuSans-117"/>
     <use x="332.568359" xlink:href="#DejaVuSans-114"/>
     <use x="371.931641" xlink:href="#DejaVuSans-114"/>
     <use x="410.794922" xlink:href="#DejaVuSans-101"/>
     <use x="472.318359" xlink:href="#DejaVuSans-110"/>
     <use x="535.697266" xlink:href="#DejaVuSans-116"/>
     <use x="574.90625" xlink:href="#DejaVuSans-32"/>
     <use x="606.693359" xlink:href="#DejaVuSans-80"/>
     <use x="665.246094" xlink:href="#DejaVuSans-114"/>
     <use x="704.109375" xlink:href="#DejaVuSans-111"/>
     <use x="765.291016" xlink:href="#DejaVuSans-98"/>
     <use x="828.767578" xlink:href="#DejaVuSans-101"/>
     <use x="890.291016" xlink:href="#DejaVuSans-32"/>
     <use x="922.078125" xlink:href="#DejaVuSans-84"/>
     <use x="968.412109" xlink:href="#DejaVuSans-114"/>
     <use x="1009.525391" xlink:href="#DejaVuSans-97"/>
     <use x="1070.804688" xlink:href="#DejaVuSans-110"/>
     <use x="1134.183594" xlink:href="#DejaVuSans-115"/>
     <use x="1186.283203" xlink:href="#DejaVuSans-102"/>
     <use x="1221.488281" xlink:href="#DejaVuSans-101"/>
     <use x="1283.011719" xlink:href="#DejaVuSans-114"/>
     <use x="1324.125" xlink:href="#DejaVuSans-32"/>
     <use x="1355.912109" xlink:href="#DejaVuSans-73"/>
     <use x="1385.404297" xlink:href="#DejaVuSans-109"/>
     <use x="1482.816406" xlink:href="#DejaVuSans-112"/>
     <use x="1546.292969" xlink:href="#DejaVuSans-101"/>
     <use x="1607.816406" xlink:href="#DejaVuSans-100"/>
     <use x="1671.292969" xlink:href="#DejaVuSans-97"/>
     <use x="1732.572266" xlink:href="#DejaVuSans-110"/>
     <use x="1795.951172" xlink:href="#DejaVuSans-99"/>
     <use x="1850.931641" xlink:href="#DejaVuSans-101"/>
    </g>
   </g>
  </g>
 </g>
 <defs>
  <clipPath id="p6650636d3f">
   <rect height="221.76" width="1116" x="48.982813" y="22.318125"/>
  </clipPath>
 </defs>
</svg>
